<?xml version="1.0" encoding="UTF-8"?>
<svg version="1.1" xmlns="http://www.w3.org/2000/svg" width="500" height="433">
<path d="M0 0 C0.69948761 0.00054382 1.39897522 0.00108765 2.11965942 0.00164795 C14.27088496 0.04488274 25.82196804 1.107959 37.5625 4.375 C38.28324707 4.57335449 39.00399414 4.77170898 39.74658203 4.97607422 C57.56680118 10.1054572 74.54451419 19.2783605 88.5625 31.375 C89.92955078 32.55255859 89.92955078 32.55255859 91.32421875 33.75390625 C93.77755638 35.92120452 96.17673861 38.13383021 98.5625 40.375 C99.44615234 41.16197266 99.44615234 41.16197266 100.34765625 41.96484375 C125.01060448 64.87864672 135.98772639 100.03793781 137.49047852 132.76489258 C138.50723596 168.39965587 125.10811401 201.03939872 100.84887695 226.9375 C97.48096293 230.47769911 94.02771949 233.93028477 90.5625 237.375 C96.88263081 234.98767425 103.1732517 232.54155012 109.4296875 229.9921875 C156.8432236 210.69902972 156.8432236 210.69902972 177.25 217.75 C180.14497983 219.17017878 181.53767045 220.00976433 183.5625 222.375 C184.63134823 225.81058359 184.73797794 227.79842962 183.6875 231.25 C157.9029367 269.16847544 77.61016171 297.03608636 35.0859375 305.4140625 C-14.12888455 314.28016313 -64.98221507 310.09736759 -109.4375 286.375 C-110.03804199 286.05805176 -110.63858398 285.74110352 -111.25732422 285.41455078 C-118.23783281 281.69995738 -124.63108305 277.61556828 -130.9375 272.875 C-148.27337098 259.86583719 -166.00958513 252.53349673 -187.49609375 249.9375 C-190.4375 249.375 -190.4375 249.375 -192.4375 247.375 C-193.16092768 242.08012509 -191.33337736 238.70638797 -188.5625 234.375 C-188.15684814 233.72345947 -187.75119629 233.07191895 -187.33325195 232.40063477 C-174.64198836 212.27108988 -156.27820132 184.7177522 -131.53125 178.6640625 C-130.49484375 178.52097656 -130.49484375 178.52097656 -129.4375 178.375 C-129.77523437 177.14265625 -130.11296875 175.9103125 -130.4609375 174.640625 C-130.91175839 172.96883088 -131.36226201 171.29695119 -131.8125 169.625 C-132.03421875 168.81933594 -132.2559375 168.01367188 -132.484375 167.18359375 C-138.34285713 145.30043989 -138.56573422 122.22617859 -132.4375 100.375 C-132.23914551 99.66263184 -132.04079102 98.95026367 -131.83642578 98.21630859 C-122.29580896 65.40478392 -100.24868949 35.58008273 -70.5 18.625 C-59.96917088 12.843833 -49.33523553 8.47433512 -37.8125 5.125 C-36.96598877 4.87854736 -36.11947754 4.63209473 -35.24731445 4.37817383 C-23.5143496 1.11092315 -12.16892527 -0.03576492 0 0 Z M41.5625 52.375 C40.72437531 53.47074499 39.93100511 54.60075656 39.15625 55.7421875 C38.41858398 56.81617798 38.41858398 56.81617798 37.66601562 57.91186523 C36.87227539 59.06924194 36.87227539 59.06924194 36.0625 60.25 C21.00691429 81.81111321 2.77494833 94.11371796 -20.49755859 105.39428711 C-35.4162546 112.66324154 -47.77768311 119.93516346 -53.75 136.0625 C-56.86968939 146.78014257 -56.64649153 159.47371659 -54.4375 170.375 C-53.58671875 170.59414062 -52.7359375 170.81328125 -51.859375 171.0390625 C-47.71123659 172.12463915 -43.57306493 173.24262228 -39.4375 174.375 C-38.66696289 174.58398926 -37.89642578 174.79297852 -37.10253906 175.00830078 C-22.85299875 178.91769994 -9.58689231 184.34001965 3.86230469 190.41357422 C11.958502 194.06497724 19.84593968 197.43593467 28.5625 199.375 C26.39866552 192.88349655 17.87597796 189.47298944 12.0625 186.5 C-2.52665375 178.7424387 -14.11123959 164.02752082 -21.4375 149.375 C-21.96024617 143.69516184 -22.15185943 139.01794928 -18.4375 134.375 C-14.84597952 134.93719194 -12.28914258 135.83275032 -9.22265625 137.7734375 C-8.45373047 138.25296875 -7.68480469 138.7325 -6.89257812 139.2265625 C-5.70825195 139.98066406 -5.70825195 139.98066406 -4.5 140.75 C4.01467294 146.74324863 4.01467294 146.74324863 13.6875 149.5 C17.11669 148.15814304 18.14593042 146.53441126 19.7578125 143.27734375 C20.85422296 140.68534428 21.74327265 138.06674701 22.5625 135.375 C22.954375 134.488125 23.34625 133.60125 23.75 132.6875 C24.86639193 130.26530325 24.86639193 130.26530325 23.5625 127.375 C25.2125 127.705 26.8625 128.035 28.5625 128.375 C31.06548434 125.43671403 32.03180939 123.19597239 32.5625 119.375 C34.515625 119.24479167 36.46875 119.11458333 38.421875 118.984375 C41.51035691 118.10517212 42.721025 117.00506961 44.5625 114.375 C44.60826793 110.85287594 44.60826793 110.85287594 43.8125 107.0625 C42.57543124 99.94935465 41.85902754 93.95726027 44.0625 87 C47.08345384 75.5347609 46.60764722 63.5232331 42.5625 52.375 C42.2325 52.375 41.9025 52.375 41.5625 52.375 Z M50.09765625 143.07421875 C47.95151589 145.97705298 46.20651361 149.01167159 44.5 152.1875 C42.58614437 155.3361012 41.86413375 156.12265617 38.5625 157.375 C37.02002082 160.45995835 36.97899096 163.73641755 36.6875 167.125 C36.60242188 167.82882813 36.51734375 168.53265625 36.4296875 169.2578125 C36.08198122 173.50931202 36.31668208 175.00735316 38.78515625 178.69921875 C41.69312607 181.50084931 44.60193916 183.62565898 47.98828125 185.78515625 C49.5625 187.375 49.5625 187.375 50.01171875 189.828125 C49.45213627 193.00071437 48.45176827 193.95292782 46.0625 196.0625 C44.86545886 197.13366182 43.69112595 198.23197831 42.5625 199.375 C42.5625 200.035 42.5625 200.695 42.5625 201.375 C41.5725 201.87 41.5725 201.87 40.5625 202.375 C50.54576182 204.16840033 60.52767043 205.89159041 70.5625 207.375 C73.98245634 217.18162179 73.98245634 217.18162179 71.65234375 222.421875 C66.07196742 231.96772775 57.68560574 235.89670362 47.5 239.0625 C24.38286586 244.88197327 2.79644809 237.6975089 -18.375 228.5625 C-25.47520224 225.51141562 -32.77979667 222.82243222 -40.4375 225.375 C-40.4375 226.035 -40.4375 226.695 -40.4375 227.375 C-41.0975 227.375 -41.7575 227.375 -42.4375 227.375 C-43.17222644 229.18416054 -43.17222644 229.18416054 -43.4375 231.375 C-39.14650237 240.53425951 -27.13743637 244.93420278 -18.23535156 248.17724609 C-13.36199153 249.8208404 -8.43321284 251.16049363 -3.4375 252.375 C-2.47070312 252.62121094 -1.50390625 252.86742187 -0.5078125 253.12109375 C26.47136794 258.79063167 59.0737676 252.54059125 83.5625 240.375 C87.19431833 236.74318167 85.86537856 225.16536611 85.88378906 220.18481445 C85.76205798 212.19251063 83.8873239 205.86223585 79.4375 199.1875 C77.75747567 197.14332597 77.75747567 197.14332597 75.5625 197.375 C76.0575 195.89 76.0575 195.89 76.5625 194.375 C79.1875 193.234375 79.1875 193.234375 82.5625 192.125 C93.68016469 188.0412087 99.92319133 182.17351858 104.875 171.5625 C107.12102775 161.14909864 105.16711704 151.99396186 99.4375 143.0625 C91.57235069 135.71029521 82.74129711 131.81221678 71.91796875 132.12890625 C63.18678597 133.04111938 55.87321848 136.37456656 50.09765625 143.07421875 Z M-74.4375 159.375 C-74.4375 162.345 -74.4375 165.315 -74.4375 168.375 C-73.1175 168.045 -71.7975 167.715 -70.4375 167.375 C-71.4275 164.735 -72.4175 162.095 -73.4375 159.375 C-73.7675 159.375 -74.0975 159.375 -74.4375 159.375 Z " fill="#DD4097" transform="translate(253.4375,67.625)"/>
<path d="M0 0 C0.33 0 0.66 0 1 0 C1 1.65 1 3.3 1 5 C1.85078125 5.14695313 2.7015625 5.29390625 3.578125 5.4453125 C23.23843707 9.08456176 41.12724279 15.83198417 59.29980469 24.03857422 C66.64150567 27.34969771 73.78764995 30.54544857 81.66796875 32.39453125 C84 33 84 33 86.3112793 33.9753418 C89.02338017 35.00891007 91.48935208 35.54553597 94.3515625 36 C95.36863281 36.165 96.38570312 36.33 97.43359375 36.5 C98.48675781 36.665 99.53992188 36.83 100.625 37 C104.75093853 37.66097639 108.87595279 38.32732266 113 39 C114.03398926 39.1657251 115.06797852 39.3314502 116.13330078 39.50219727 C117.11540527 39.66776123 118.09750977 39.8333252 119.109375 40.00390625 C119.98819336 40.14900635 120.86701172 40.29410645 121.77246094 40.44360352 C124.80069313 41.19999777 126.27906292 42.41859437 128 45 C129.39752261 49.19256782 129.92864912 52.84286887 128.12890625 57.0234375 C122.27978611 67.03406279 113.68875459 71.33478492 102.9375 74.6875 C79.82189123 80.50658927 58.23224792 73.32414171 37.0625 64.1875 C30.70167392 61.44757526 25.00968486 59.90879592 18 60 C17.01 60 16.02 60 15 60 C15 60.66 15 61.32 15 62 C14.34 62 13.68 62 13 62 C13 65.11418045 13.42666593 67.28011144 15.390625 69.74609375 C25.3185836 79.11091184 39.08236294 82.72229285 52 86 C52.97066406 86.24878906 53.94132813 86.49757813 54.94140625 86.75390625 C81.09852069 92.19854579 109.85832453 85.88849858 134.31640625 76.328125 C138.32581972 74.88252523 140.81546168 74.73846635 145 75 C145 74.34 145 73.68 145 73 C158.93987803 66.76018454 172.89694378 60.76691701 187.375 55.875 C188.43501221 55.50963135 189.49502441 55.1442627 190.5871582 54.76782227 C204.98004188 50.04218691 221.84064101 47.05389937 236 54 C238.29161922 55.97740193 238.95161707 56.84448344 239.875 59.8125 C240.06212983 64.58431068 238.64678575 67.13934597 235.49609375 70.69921875 C187.07449989 117.36002738 102.3545328 145.50060719 36.39453125 144.28125 C4.36886689 143.279796 -25.76111071 136.06892405 -54 121 C-54.60054199 120.68305176 -55.20108398 120.36610352 -55.81982422 120.03955078 C-62.80033281 116.32495738 -69.19358305 112.24056828 -75.5 107.5 C-92.83587098 94.49083719 -110.57208513 87.15849673 -132.05859375 84.5625 C-135 84 -135 84 -137 82 C-137.72342768 76.70512509 -135.89587736 73.33138797 -133.125 69 C-132.71934814 68.34845947 -132.31369629 67.69691895 -131.89575195 67.02563477 C-119.20448836 46.89608988 -100.84070132 19.3427522 -76.09375 13.2890625 C-75.4028125 13.19367188 -74.711875 13.09828125 -74 13 C-74 12.34 -74 11.68 -74 11 C-65.72080864 8.24957724 -57.58626457 6.19252457 -49.01953125 4.61328125 C-46.09409435 4.15547959 -46.09409435 4.15547959 -44 3 C-42.61182327 2.88273341 -41.21851286 2.82318594 -39.82568359 2.79467773 C-38.96494232 2.77473251 -38.10420105 2.75478729 -37.21737671 2.73423767 C-36.28712677 2.71752518 -35.35687683 2.70081268 -34.3984375 2.68359375 C-33.44683746 2.66281265 -32.49523743 2.64203156 -31.51480103 2.62062073 C-28.46827568 2.55511867 -25.42166257 2.4962372 -22.375 2.4375 C-20.31249084 2.39431541 -18.24999063 2.35070114 -16.1875 2.30664062 C-11.12509046 2.1994366 -6.06259245 2.09817098 -1 2 C-0.67 1.34 -0.34 0.68 0 0 Z " fill="#10B5EB" transform="translate(198,233)"/>
<path d="M0 0 C2.39674267 0.11456128 4.79181218 0.24128719 7.1875 0.375 C7.86103516 0.4059375 8.53457031 0.436875 9.22851562 0.46875 C13.18195407 0.70017079 16.48277173 1.13147248 20 3 C22.92974022 7.34409756 23.71441342 10.82050269 23 16 C19.3436667 24.36894067 12.75719486 29.7644298 4.42578125 33.125 C-21.3357771 42.41741396 -44.76041083 35.62207873 -68.9375 25.1875 C-75.29832608 22.44757526 -80.99031514 20.90879592 -88 21 C-88.99 21 -89.98 21 -91 21 C-91 21.66 -91 22.32 -91 23 C-91.66 23 -92.32 23 -93 23 C-93 26.11418045 -92.57333407 28.28011144 -90.609375 30.74609375 C-80.6814164 40.11091184 -66.91763706 43.72229285 -54 47 C-53.02933594 47.24878906 -52.05867188 47.49757813 -51.05859375 47.75390625 C-24.90147931 53.19854579 3.85832453 46.88849858 28.31640625 37.328125 C32.32581972 35.88252523 34.81546168 35.73846635 39 36 C39 35.34 39 34.68 39 34 C52.93987803 27.76018454 66.89694378 21.76691701 81.375 16.875 C82.96501831 16.32694702 82.96501831 16.32694702 84.5871582 15.76782227 C98.98004188 11.04218691 115.84064101 8.05389937 130 15 C132.29161922 16.97740193 132.95161707 17.84448344 133.875 20.8125 C134.06212983 25.58431068 132.64678575 28.13934597 129.49609375 31.69921875 C81.07449989 78.36002738 -3.6454672 106.50060719 -69.60546875 105.28125 C-101.60859578 104.28050075 -131.78967432 97.09580287 -160 82 C-160.65371582 81.65114746 -161.30743164 81.30229492 -161.98095703 80.94287109 C-168.3208293 77.52739321 -174.03180227 74.33689515 -179 69 C-174.28629244 69.64985095 -170.42313556 71.51561392 -166.1875 73.5625 C-165.49462891 73.89185547 -164.80175781 74.22121094 -164.08789062 74.56054688 C-162.38955052 75.36872251 -160.69444231 76.18368377 -159 77 C-159 77.66 -159 78.32 -159 79 C-158.236875 78.938125 -157.47375 78.87625 -156.6875 78.8125 C-154 79 -154 79 -152.1875 80.375 C-151 82 -151 82 -151 84 C-149.88625 84.185625 -149.88625 84.185625 -148.75 84.375 C-146.14755361 84.96646509 -144.36607695 85.81696152 -142 87 C-140.3603125 87.4640625 -140.3603125 87.4640625 -138.6875 87.9375 C-135 89 -135 89 -131.8125 90.4375 C-123.26890428 94.19668211 -113.92515278 95.42571867 -104.73828125 96.5703125 C-102 97 -102 97 -101 98 C-98.01561627 98.0209116 -95.04554545 97.99373637 -92.0625 97.9375 C-81.64544247 97.81369307 -81.64544247 97.81369307 -76.875 99.0625 C-71.63576272 100.39075734 -66.56661424 99.85089009 -61.23779297 99.36938477 C-57.63416241 99.06241507 -54.39204582 99.00781249 -50.80859375 99.55859375 C-47.07213089 99.99164021 -45.15064005 99.78141705 -41.6875 98.5 C-37.29707427 96.90097524 -37.29707427 96.90097524 -34 98 C-33.67 97.34 -33.34 96.68 -33 96 C-32.15566406 96.17917969 -31.31132812 96.35835938 -30.44140625 96.54296875 C-20.71938141 97.83408896 -10.65784863 94.88714702 -1.51171875 91.8046875 C1 91 1 91 3 91 C3.33 90.34 3.66 89.68 4 89 C5.9609375 88.4375 5.9609375 88.4375 8.375 88 C11.67525619 87.39799887 13.11408973 86.92394018 16 85 C17.670625 84.814375 17.670625 84.814375 19.375 84.625 C23.38966356 83.93281663 25.07300508 82.74960129 28 80 C28.33 80.66 28.66 81.32 29 82 C29.99 81.34 30.98 80.68 32 80 C34.64017635 79.18220159 37.30270591 78.6190511 40 78 C40.33 76.68 40.66 75.36 41 74 C41.99 74.33 42.98 74.66 44 75 C44.33 74.34 44.66 73.68 45 73 C48.53532003 71.82155999 51.26100308 72 55 72 C55.020625 71.4225 55.04125 70.845 55.0625 70.25 C56.5766255 66.61609879 59.55956175 65.75149584 63 64 C63.33 64.66 63.66 65.32 64 66 C68.07964281 64.69844994 68.07964281 64.69844994 72 63 C72.33 62.01 72.66 61.02 73 60 C76.21284338 58.11420063 78.24633583 57 82 57 C84.00309329 56.68578929 86.00371336 56.3548954 88 56 C88 54.02 88 52.04 88 50 C89.98 49.01 89.98 49.01 92 48 C92 48.66 92 49.32 92 50 C93.485 49.505 93.485 49.505 95 49 C99.5 47.5 99.5 47.5 104 46 C104 45.34 104 44.68 104 44 C104.99 44 105.98 44 107 44 C107 43.34 107 42.68 107 42 C106.34 41.67 105.68 41.34 105 41 C105.763125 40.855625 106.52625 40.71125 107.3125 40.5625 C110.08172908 40.0367406 110.08172908 40.0367406 113 39 C113.598125 38.030625 114.19625 37.06125 114.8125 36.0625 C117.39432418 32.44794615 118.85535697 32.20885422 123 31 C126.58893495 28.20860615 128.15998368 25.48008702 129 21 C127.92185366 18.76332073 127.92185366 18.76332073 126 17 C123.64296837 16.30313554 123.64296837 16.30313554 121.0625 16.25 C120.20785156 16.19328125 119.35320312 16.1365625 118.47265625 16.078125 C116.3160232 16.00998494 114.15770924 16 112 16 C112 15.34 112 14.68 112 14 C100.24149401 15.47894614 100.24149401 15.47894614 89 19 C88.34 19.99 87.68 20.98 87 22 C83.32406756 23.83796622 80.08181375 24.10741615 76 24 C73.67642489 23.81509993 73.67642489 23.81509993 71 26 C68.67612053 26.39387788 66.34206251 26.73486085 64 27 C64.33 28.32 64.66 29.64 65 31 C63.700625 31.103125 62.40125 31.20625 61.0625 31.3125 C56.95513517 31.77313905 53.34388643 32.71573512 49.46484375 34.11328125 C45.61248293 35.49915432 41.69872497 36.69881747 37.796875 37.9375 C34.94637337 38.92488689 34.94637337 38.92488689 32.359375 40.59375 C29.30754303 42.4127227 26.49497369 42.50071804 23 43 C22.27296875 43.474375 21.5459375 43.94875 20.796875 44.4375 C17.23692231 46.42630039 13.7255539 46.92457939 9.75 47.5 C5.06737918 48.24092729 0.58361475 48.95504611 -3.875 50.625 C-22.63264178 57.60876365 -48.47684253 53.89724742 -67 48 C-67.33 47.67 -67.66 47.34 -68 47 C-69.72359057 46.67701029 -71.45429876 46.39164634 -73.1875 46.125 C-80.66283616 44.80013447 -84.71084583 42.4247735 -90 37 C-91.3303125 36.2884375 -91.3303125 36.2884375 -92.6875 35.5625 C-95.84033954 33.43220302 -96.208453 31.66989973 -97 28 C-97.32551176 23.84972507 -97.35049617 22.52574425 -95 19 C-91.09788916 16.92484918 -87.74863456 16.75720117 -83.375 16.8125 C-81.68503906 16.82216797 -81.68503906 16.82216797 -79.9609375 16.83203125 C-77 17 -77 17 -74 18 C-74 18.66 -74 19.32 -74 20 C-73.12601563 20.02126953 -73.12601563 20.02126953 -72.234375 20.04296875 C-65.72356853 20.42174208 -60.58786026 22.1553774 -54.6640625 24.84375 C-52.42317178 25.816336 -50.38194273 26.50329156 -48 27 C-48 27.66 -48 28.32 -48 29 C-45.69 29.33 -43.38 29.66 -41 30 C-41 30.66 -41 31.32 -41 32 C-25.34089588 33.94571373 -4.31704214 36.03942206 9.36328125 27.0234375 C11 26 11 26 13 26 C13.33 24.68 13.66 23.36 14 22 C14.66 22 15.32 22 16 22 C17.54642808 16.3297637 18.48517081 10.852795 19 5 C13.58016805 3.68027733 8.32000412 2.73055584 2.75 2.34375 C2.1725 2.2303125 1.595 2.116875 1 2 C0.67 1.34 0.34 0.68 0 0 Z " fill="#539DC6" transform="translate(304,272)"/>
<path d="M0 0 C0.33 0 0.66 0 1 0 C1 1.65 1 3.3 1 5 C1.85078125 5.14695313 2.7015625 5.29390625 3.578125 5.4453125 C23.23843707 9.08456176 41.12724279 15.83198417 59.29980469 24.03857422 C66.64150567 27.34969771 73.78764995 30.54544857 81.66796875 32.39453125 C84 33 84 33 86.28125 33.97265625 C89.89113411 35.33673602 93.52056127 35.9608177 97.3125 36.625 C98.05306641 36.7590625 98.79363281 36.893125 99.55664062 37.03125 C101.37025044 37.35886984 103.18501524 37.68008494 105 38 C105 38.33 105 38.66 105 39 C99.42840623 39.16167571 94.42878226 38.71052538 89 37.375 C88.27304932 37.1996875 87.54609863 37.024375 86.79711914 36.84375 C76.07022968 34.13916136 65.78006488 30.16682673 56 25 C54.33485365 24.32954503 52.66802859 23.66325172 51 23 C49.18364416 22.17510477 47.37122092 21.3415042 45.5625 20.5 C40.36509022 18.14069516 35.73044113 16.09681722 30 15.6875 C25.82539609 15.31178565 22.39614929 14.0905769 18.5 12.5625 C-5.17413975 3.89450809 -40.21898516 4.87452807 -64 13 C-67.375 13.125 -67.375 13.125 -70 13 C-70 13.66 -70 14.32 -70 15 C-70.9178125 15.23074219 -71.835625 15.46148437 -72.78125 15.69921875 C-83.17231968 18.46071101 -90.24235963 21.0273038 -96.48828125 30.0625 C-98.90348057 33.15794925 -101.66715149 34.9490163 -105 37 C-105.66 37 -106.32 37 -107 37 C-107.06058594 37.73605469 -107.12117188 38.47210938 -107.18359375 39.23046875 C-108.27031136 42.91698926 -110.01430807 44.03600223 -113.0625 46.3125 C-113.98160156 47.00988281 -114.90070313 47.70726562 -115.84765625 48.42578125 C-116.91306641 49.20501953 -116.91306641 49.20501953 -118 50 C-118 45.7019042 -115.50924598 43.59614064 -112.8125 40.5 C-112.00208252 39.56776611 -112.00208252 39.56776611 -111.17529297 38.61669922 C-101.9043923 28.19194402 -88.39518734 14.98739527 -74 13 C-74 12.34 -74 11.68 -74 11 C-65.72080864 8.24957724 -57.58626457 6.19252457 -49.01953125 4.61328125 C-46.09409435 4.15547959 -46.09409435 4.15547959 -44 3 C-42.61182327 2.88273341 -41.21851286 2.82318594 -39.82568359 2.79467773 C-38.96494232 2.77473251 -38.10420105 2.75478729 -37.21737671 2.73423767 C-36.28712677 2.71752518 -35.35687683 2.70081268 -34.3984375 2.68359375 C-33.44683746 2.66281265 -32.49523743 2.64203156 -31.51480103 2.62062073 C-28.46827568 2.55511867 -25.42166257 2.4962372 -22.375 2.4375 C-20.31249084 2.39431541 -18.24999063 2.35070114 -16.1875 2.30664062 C-11.12509046 2.1994366 -6.06259245 2.09817098 -1 2 C-0.67 1.34 -0.34 0.68 0 0 Z " fill="#3EABE1" transform="translate(198,233)"/>
<path d="M0 0 C-0.66 0 -1.32 0 -2 0 C-2 0.66 -2 1.32 -2 2 C-2.66 2 -3.32 2 -4 2 C-4 5.11418045 -3.57333407 7.28011144 -1.609375 9.74609375 C8.3185836 19.11091184 22.08236294 22.72229285 35 26 C35.97066406 26.24878906 36.94132812 26.49757813 37.94140625 26.75390625 C64.09852069 32.19854579 92.85832453 25.88849858 117.31640625 16.328125 C121.32581972 14.88252523 123.81546168 14.73846635 128 15 C128 14.34 128 13.68 128 13 C131.45286663 11.46652884 134.91307836 9.95040472 138.375 8.4375 C139.35984375 7.99986328 140.3446875 7.56222656 141.359375 7.11132812 C142.77089844 6.49741211 142.77089844 6.49741211 144.2109375 5.87109375 C145.08024902 5.48880615 145.94956055 5.10651855 146.84521484 4.71264648 C149 4 149 4 151 5 C150.195625 5.2475 149.39125 5.495 148.5625 5.75 C147.716875 6.1625 146.87125 6.575 146 7 C145.79117188 7.98226563 145.79117188 7.98226563 145.578125 8.984375 C145.38734375 9.64953125 145.1965625 10.3146875 145 11 C143.35546875 11.90625 143.35546875 11.90625 141.1875 12.5 C140.38183594 12.7371875 139.57617188 12.974375 138.74609375 13.21875 C137.83988281 13.4765625 136.93367187 13.734375 136 14 C133.91278103 14.65439988 131.82947892 15.32140614 129.75 16 C128.77546875 16.309375 127.8009375 16.61875 126.796875 16.9375 C123.94637337 17.92488689 123.94637337 17.92488689 121.359375 19.59375 C118.30754303 21.4127227 115.49497369 21.50071804 112 22 C111.27296875 22.474375 110.5459375 22.94875 109.796875 23.4375 C106.23692231 25.42630039 102.7255539 25.92457939 98.75 26.5 C94.06737918 27.24092729 89.58361475 27.95504611 85.125 29.625 C69.46879971 35.45404844 46.7520579 33.49343456 30.875 29.6875 C29.98699707 29.47464355 29.09899414 29.26178711 28.18408203 29.04248047 C25.7421875 28.38671875 25.7421875 28.38671875 22 27 C21.67 26.01 21.34 25.02 21 24 C20.31679687 23.90203125 19.63359375 23.8040625 18.9296875 23.703125 C10.56060819 21.69454597 1.58267722 16.51107861 -5 11 C-6.28317892 7.15046324 -6.06643637 4.05261865 -6 0 C-3 -1 -3 -1 0 0 Z " fill="#52A1CB" transform="translate(215,293)"/>
<path d="M0 0 C0.66 0.33 1.32 0.66 2 1 C1.61328125 1.4125 1.2265625 1.825 0.828125 2.25 C-2.03127441 5.42081915 -4.32469486 8.3613409 -6.125 12.25 C-7.58897125 15.39753819 -8.83924569 17.31426437 -12 19 C-12.66 19 -13.32 19 -14 19 C-14.2766209 21.8954992 -14.52198324 24.78811046 -14.75 27.6875 C-14.83121094 28.50412109 -14.91242188 29.32074219 -14.99609375 30.16210938 C-15.28848851 34.17441519 -15.39772382 36.32515843 -13.3125 39.86328125 C-10.33477461 42.61465928 -7.16892227 44.87157574 -3.828125 47.15625 C-2 49 -2 49 -1.51953125 51.48828125 C-2.11429115 54.59747322 -3.10083108 55.59531153 -5.4375 57.6875 C-8.10227179 60.05079997 -8.10227179 60.05079997 -10 63 C-17.90143023 63.75251716 -21.92392776 62.01834206 -28 57 C-29.77846155 55.39565357 -31.38374897 53.77266242 -33 52 C-26.9453125 51.8046875 -26.9453125 51.8046875 -25 52 C-24.34 52.66 -23.68 53.32 -23 54 C-22.67 53.34 -22.34 52.68 -22 52 C-20.02 52 -18.04 52 -16 52 C-16 50.68 -16 49.36 -16 48 C-15.01 47.505 -15.01 47.505 -14 47 C-14 46.34 -14 45.68 -14 45 C-14.66 45 -15.32 45 -16 45 C-18.07434732 39.88763219 -18.24424065 35.53669107 -18.125 30.125 C-18.11597656 29.34125 -18.10695313 28.5575 -18.09765625 27.75 C-18.07428063 25.83319945 -18.03841653 23.91655809 -18 22 C-17.34 22 -16.68 22 -16 22 C-16.12375 21.01 -16.2475 20.02 -16.375 19 C-16.375 13.88007354 -13.50123234 10.50123234 -10 7 C-6.875 5.25 -6.875 5.25 -4 4 C-1.68581709 1.93832739 -1.68581709 1.93832739 0 0 Z " fill="#DE4899" transform="translate(306,206)"/>
<path d="M0 0 C4.71370756 0.64985095 8.57686444 2.51561392 12.8125 4.5625 C13.50537109 4.89185547 14.19824219 5.22121094 14.91210938 5.56054688 C16.61044948 6.36872251 18.30555769 7.18368377 20 8 C20 8.66 20 9.32 20 10 C20.763125 9.938125 21.52625 9.87625 22.3125 9.8125 C25 10 25 10 26.8125 11.375 C28 13 28 13 28 15 C28.7425 15.12375 29.485 15.2475 30.25 15.375 C32.85244639 15.96646509 34.63392305 16.81696152 37 18 C38.093125 18.309375 39.18625 18.61875 40.3125 18.9375 C44 20 44 20 47.1875 21.4375 C55.73109572 25.19668211 65.07484722 26.42571867 74.26171875 27.5703125 C77 28 77 28 78 29 C80.98438373 29.0209116 83.95445455 28.99373637 86.9375 28.9375 C97.35455753 28.81369307 97.35455753 28.81369307 102.125 30.0625 C107.36423728 31.39075734 112.43338576 30.85089009 117.76220703 30.36938477 C121.36583759 30.06241507 124.60795418 30.00781249 128.19140625 30.55859375 C131.92786911 30.99164021 133.84935995 30.78141705 137.3125 29.5 C141.70292573 27.90097524 141.70292573 27.90097524 145 29 C145.33 28.34 145.66 27.68 146 27 C151.75 27.875 151.75 27.875 154 29 C141.60597543 33.81989844 128.57513282 33.28331823 115.50854492 33.20581055 C112.30965224 33.18748368 109.11104929 33.18530191 105.91210938 33.18554688 C103.85416419 33.18063254 101.79622095 33.17480459 99.73828125 33.16796875 C98.79430984 33.16685593 97.85033844 33.1657431 96.87776184 33.16459656 C91.86951078 33.129156 86.99302609 32.87215788 82.0272522 32.20597839 C79.84083622 31.98382821 77.73034202 32.00082076 75.53515625 32.0703125 C70.61157114 32.12365578 66.17922354 31.12688615 61.4375 29.875 C60.56834961 29.64981689 59.69919922 29.42463379 58.80371094 29.19262695 C44.73623624 25.43623518 31.81737351 19.85878448 19 13 C18.34628418 12.65114746 17.69256836 12.30229492 17.01904297 11.94287109 C10.6791707 8.52739321 4.96819773 5.33689515 0 0 Z " fill="#29AAE0" transform="translate(125,341)"/>
<path d="M0 0 C0.66 0.33 1.32 0.66 2 1 C-0.75 7.875 -0.75 7.875 -3 9 C-4.05175052 10.81466117 -4.05175052 10.81466117 -5 12.9375 C-6.18413003 15.48615488 -6.98757159 16.98757159 -9 19 C-10.59875322 22.37514568 -11 24.16558757 -11 28 C-10.16597656 28.09796875 -9.33195312 28.1959375 -8.47265625 28.296875 C-2.09933634 29.1437308 3.20189514 30.26378626 8.953125 33.12890625 C11.07958614 34.03386967 12.76936948 34.31779389 15.0625 34.5 C19.70739669 35.08982815 22.98262382 36.70283011 27 39 C27 39.66 27 40.32 27 41 C28.11375 41.2475 29.2275 41.495 30.375 41.75 C34 43 34 43 35.1875 45.0625 C35.455625 45.701875 35.72375 46.34125 36 47 C36.5775 47.144375 37.155 47.28875 37.75 47.4375 C41.29806161 48.3245154 43.36849019 50.54011039 46 53 C47.375 55.3125 47.375 55.3125 48 57 C44.72563806 55.50338507 41.78228946 53.58819064 38.77246094 51.62329102 C23.0577882 41.4383468 7.51855648 35.69254794 -11.1640625 33.52734375 C-14 33 -14 33 -16 31 C-16.76576247 25.6001904 -14.7647366 22.15340824 -11.9375 17.75 C-11.53281494 17.09829834 -11.12812988 16.44659668 -10.71118164 15.77514648 C-7.3324197 10.38466345 -3.75702136 5.13419318 0 0 Z " fill="#4CA7C6" transform="translate(77,284)"/>
<path d="M0 0 C1.32 0 2.64 0 4 0 C3.67 0.928125 3.34 1.85625 3 2.8125 C1.85032996 5.92029291 1.85032996 5.92029291 2 9 C1.46020026 12.34675841 0.31317351 14.50889007 -2 17 C-2.99 17 -3.98 17 -5 17 C-5.33 19.31 -5.66 21.62 -6 24 C-6.66 24 -7.32 24 -8 24 C-7.505 25.485 -7.505 25.485 -7 27 C-8.98 26.34 -10.96 25.68 -13 25 C-13.0928125 26.1446875 -13.0928125 26.1446875 -13.1875 27.3125 C-14 30 -14 30 -16.1875 31.8125 C-19.54047288 33.22819966 -21.39551786 33.58848688 -25 33 C-27.02054804 31.35830472 -29.02043058 29.69088222 -31 28 C-32.0725 27.835 -33.145 27.67 -34.25 27.5 C-35.61125 27.2525 -35.61125 27.2525 -37 27 C-37.28875 26.2575 -37.5775 25.515 -37.875 24.75 C-39.59883588 20.53617896 -42.95391033 18.85671419 -47 17 C-49.83888324 16.57493952 -49.83888324 16.57493952 -52 17 C-53.29969521 20.89908564 -53.6948108 24.95546978 -53 29 C-51.8218905 31.24040485 -50.51200101 33.21296342 -48.99609375 35.23828125 C-48.66738281 35.81964844 -48.33867187 36.40101563 -48 37 C-48.33 37.99 -48.66 38.98 -49 40 C-53.13306148 34.21863424 -55.91104347 29.52240944 -55.4765625 22.2734375 C-54.74254986 18.77183621 -53.29123743 16.72084444 -51 14 C-47.40847952 14.56219194 -44.85164258 15.45775032 -41.78515625 17.3984375 C-41.01623047 17.87796875 -40.24730469 18.3575 -39.45507812 18.8515625 C-38.66552734 19.35429687 -37.87597656 19.85703125 -37.0625 20.375 C-28.52459877 26.40830641 -28.52459877 26.40830641 -18.8125 29.0625 C-15.77341074 28.23101192 -15.77341074 28.23101192 -14.25 25.3125 C-13.08572603 22.22717399 -12.00255005 19.14132349 -11 16 C-10.608125 15.13375 -10.21625 14.2675 -9.8125 13.375 C-8.91190644 10.74249574 -9.04837786 9.56937977 -10 7 C-8.02 7.33 -6.04 7.66 -4 8 C-2.68 5.36 -1.36 2.72 0 0 Z " fill="#DE4796" transform="translate(286,187)"/>
<path d="M0 0 C3.14569587 0.93520688 4.7510624 1.70127488 6.875 4.25 C8.36106788 7.88261038 8.31376581 9.27766353 7 13 C-2.42776054 27.73477807 -25.47556459 38.93989244 -41 46 C-41 45.34 -41 44.68 -41 44 C-40.4225 43.79375 -39.845 43.5875 -39.25 43.375 C-36.19540291 41.50830178 -34.90583572 38.9858093 -33 36 C-30.41652124 34.70826062 -27.74394669 33.89598259 -25 33 C-23.515 32.505 -23.515 32.505 -22 32 C-22 31.34 -22 30.68 -22 30 C-21.01 30 -20.02 30 -19 30 C-19 29.34 -19 28.68 -19 28 C-19.66 27.67 -20.32 27.34 -21 27 C-19.8553125 26.7834375 -19.8553125 26.7834375 -18.6875 26.5625 C-15.91827092 26.0367406 -15.91827092 26.0367406 -13 25 C-12.401875 24.030625 -11.80375 23.06125 -11.1875 22.0625 C-8.60567582 18.44794615 -7.14464303 18.20885422 -3 17 C0.6089763 14.19301843 2.2037079 11.5123219 3 7 C2.27194876 4.43374847 1.24226715 2.38897529 0 0 Z " fill="#5B9BC5" transform="translate(430,286)"/>
<path d="M0 0 C2.39358936 0.23486159 4.78680905 0.47282898 7.1796875 0.71484375 C8.99699027 0.89858766 10.81467957 1.07856702 12.6328125 1.25390625 C18.88741055 1.88741055 18.88741055 1.88741055 20 3 C23.14723252 3.44692204 26.29312721 3.82056826 29.453125 4.16210938 C33.00513794 4.58710703 34.96785319 4.9785688 38 7 C38.94661076 12.08930515 38.11744277 17.31933704 36 22 C34.4375 23.6875 34.4375 23.6875 33 25 C32.505 26.485 32.505 26.485 32 28 C21.55619111 36.11149584 8.74829286 36.12366799 -3.875 36.25 C-4.64714844 36.25950684 -5.41929687 36.26901367 -6.21484375 36.27880859 C-11.69241672 36.2470988 -16.70438772 35.37764373 -22 34 C-22 33.34 -22 32.68 -22 32 C-22.99 31.67 -23.98 31.34 -25 31 C-24.31550781 31.14308594 -23.63101562 31.28617187 -22.92578125 31.43359375 C-9.34698213 34.263732 -9.34698213 34.263732 4.3515625 33.4921875 C7.23210559 32.95686533 9.88541564 32.90223392 12.8125 32.9375 C13.78832031 32.94652344 14.76414062 32.95554687 15.76953125 32.96484375 C16.87361328 32.98224609 16.87361328 32.98224609 18 33 C18.25007813 32.37996094 18.50015625 31.75992187 18.7578125 31.12109375 C20.23102444 28.60551487 21.21895874 28.1499735 23.875 27.0625 C27.67044796 25.33979215 29.48573652 23.35235131 32 20 C32.99 20 33.98 20 35 20 C35 16.7 35 13.4 35 10 C29.72 8.68 24.44 7.36 19 6 C19 5.34 19 4.68 19 4 C13.72 3.67 8.44 3.34 3 3 C3 2.34 3 1.68 3 1 C2.01 0.67 1.02 0.34 0 0 Z " fill="#28ACE0" transform="translate(285,270)"/>
<path d="M0 0 C0.99 0.495 0.99 0.495 2 1 C1.525625 1.61875 1.05125 2.2375 0.5625 2.875 C-1.02417441 4.90705546 -1.02417441 4.90705546 -2 7 C-3.98 6.34 -5.96 5.68 -8 5 C-8 5.66 -8 6.32 -8 7 C-9.1446875 7.1546875 -9.1446875 7.1546875 -10.3125 7.3125 C-13.03063512 7.73888621 -13.03063512 7.73888621 -14.375 9.5625 C-16.92829654 11.8211854 -19.70179764 11 -23 11 C-23.66 11.99 -24.32 12.98 -25 14 C-26.89700278 14.29952676 -28.79863715 14.58439635 -30.7109375 14.76171875 C-37.74344909 15.493772 -43.86302422 16.86302422 -49 22 C-51.47612275 22.29597803 -53.84668482 22.46977785 -56.33203125 22.5546875 C-57.07219986 22.5851265 -57.81236847 22.61556549 -58.57496643 22.64692688 C-60.98723981 22.73788509 -63.39941856 22.80908037 -65.8125 22.875 C-67.03576996 22.91169296 -67.03576996 22.91169296 -68.28375244 22.9491272 C-83.49951509 23.36552186 -97.55262325 22.06804804 -112 17 C-112 16.34 -112 15.68 -112 15 C-111.01386719 15.28875 -110.02773437 15.5775 -109.01171875 15.875 C-91.78250414 20.50657583 -66.63498001 23.1019601 -49.6484375 16.01953125 C-45.33550557 14.35924329 -40.79568904 13.89753579 -36.23828125 13.23242188 C-31.80327192 12.52203542 -28.81622519 11.48452161 -25 9 C-22.71875 8.375 -22.71875 8.375 -20.5 8 C-16.73414879 7.25177669 -14.28816365 6.00497783 -11 4 C-8.38811831 3.13483982 -5.76204233 2.37831342 -3.109375 1.6484375 C-1.03477571 1.19081495 -1.03477571 1.19081495 0 0 Z " fill="#28A9E0" transform="translate(352,305)"/>
<path d="M0 0 C4 0 4 0 5.6875 1.125 C7.4690236 3.67003371 7.53677597 5.93114082 8 9 C8.515625 10.155 9.03125 11.31 9.5625 12.5 C12.52710235 20.0277648 12.164963 29.6183627 9 37 C6.94140625 39.95703125 6.94140625 39.95703125 4.5625 42.8125 C3.78003906 43.76769531 2.99757813 44.72289062 2.19140625 45.70703125 C0 48 0 48 -3 49 C-4.58075489 51.73592193 -5.81431191 54.23661561 -6.5625 57.3125 C-6.706875 57.869375 -6.85125 58.42625 -7 59 C-7.99 59.495 -7.99 59.495 -9 60 C-9.33 58.35 -9.66 56.7 -10 55 C-10.99 55 -11.98 55 -13 55 C-13 55.66 -13 56.32 -13 57 C-12.34 57 -11.68 57 -11 57 C-11 57.66 -11 58.32 -11 59 C-11.99 59 -12.98 59 -14 59 C-13.67 60.32 -13.34 61.64 -13 63 C-13.99 63.495 -13.99 63.495 -15 64 C-15.61875 63.030625 -16.2375 62.06125 -16.875 61.0625 C-18.65678846 57.97164638 -18.65678846 57.97164638 -21 57 C-20.87890625 55.1484375 -20.87890625 55.1484375 -20 53 C-17.33984375 51.7265625 -17.33984375 51.7265625 -13.9375 50.625 C-4.48637646 47.21928297 1.45600162 43.06960001 6 34 C9.41912713 26.673299 8.84299367 18.68063918 6.25 11.1875 C4.59305479 7.0569723 2.68167015 3.54363556 0 0 Z " fill="#D45598" transform="translate(350,208)"/>
<path d="M0 0 C4.71370756 0.64985095 8.57686444 2.51561392 12.8125 4.5625 C13.50537109 4.89185547 14.19824219 5.22121094 14.91210938 5.56054688 C16.61044948 6.36872251 18.30555769 7.18368377 20 8 C20 8.66 20 9.32 20 10 C20.763125 9.938125 21.52625 9.87625 22.3125 9.8125 C25 10 25 10 26.8125 11.375 C28 13 28 13 28 15 C28.7425 15.12375 29.485 15.2475 30.25 15.375 C32.85244639 15.96646509 34.63392305 16.81696152 37 18 C38.010625 18.268125 39.02125 18.53625 40.0625 18.8125 C45.29600243 20.21800393 50.11871712 22.6873488 55 25 C55 25.66 55 26.32 55 27 C55.59425781 27.03738281 56.18851563 27.07476562 56.80078125 27.11328125 C63.47134587 27.6423618 69.60272899 29.06622416 76 31 C76 31.33 76 31.66 76 32 C69.14935733 31.51345641 62.77931645 30.41811573 56.1875 28.5 C55.28660645 28.23791748 54.38571289 27.97583496 53.45751953 27.70581055 C39.41396659 23.46056711 26.22503981 17.52797264 13.5 10.25 C12.7167334 9.80245361 11.9334668 9.35490723 11.12646484 8.89379883 C6.81104522 6.3365307 3.37159969 3.71946315 0 0 Z " fill="#56A1C4" transform="translate(125,341)"/>
<path d="M0 0 C0.66 0.33 1.32 0.66 2 1 C1.61328125 1.4125 1.2265625 1.825 0.828125 2.25 C-2.03127441 5.42081915 -4.32469486 8.3613409 -6.125 12.25 C-7.58897125 15.39753819 -8.83924569 17.31426437 -12 19 C-12.66 19 -13.32 19 -14 19 C-14.2766209 21.8954992 -14.52198324 24.78811046 -14.75 27.6875 C-14.83121094 28.50412109 -14.91242188 29.32074219 -14.99609375 30.16210938 C-15.2879611 34.167178 -15.40452839 36.31829475 -13.3125 39.84375 C-11.03200293 41.97015943 -8.74457159 43.94157131 -6.25 45.8125 C-5.05117188 46.71935547 -5.05117188 46.71935547 -3.828125 47.64453125 C-2.92320312 48.31548828 -2.92320312 48.31548828 -2 49 C-2.33 50.32 -2.66 51.64 -3 53 C-3 52.34 -3 51.68 -3 51 C-4.32 51 -5.64 51 -7 51 C-7.33 49.35 -7.66 47.7 -8 46 C-9.485 46.495 -9.485 46.495 -11 47 C-17.83995931 40.34003962 -17.83995931 40.34003962 -18.22705078 37.09887695 C-18.21657715 36.40238037 -18.20610352 35.70588379 -18.1953125 34.98828125 C-18.18886719 34.23095703 -18.18242187 33.47363281 -18.17578125 32.69335938 C-18.15902344 31.90767578 -18.14226562 31.12199219 -18.125 30.3125 C-18.11597656 29.51521484 -18.10695313 28.71792969 -18.09765625 27.89648438 C-18.07411585 25.930861 -18.03824547 23.96539225 -18 22 C-17.34 22 -16.68 22 -16 22 C-16.12375 21.01 -16.2475 20.02 -16.375 19 C-16.375 13.88007354 -13.50123234 10.50123234 -10 7 C-6.875 5.25 -6.875 5.25 -4 4 C-1.68581709 1.93832739 -1.68581709 1.93832739 0 0 Z " fill="#C2528D" transform="translate(306,206)"/>
<path d="M0 0 C2.39674267 0.11456128 4.79181218 0.24128719 7.1875 0.375 C8.19780273 0.42140625 8.19780273 0.42140625 9.22851562 0.46875 C13.18195407 0.70017079 16.48277173 1.13147248 20 3 C22.92974022 7.34409756 23.71441342 10.82050269 23 16 C19.34337073 24.36961811 12.76008605 29.75508743 4.43359375 33.125 C-4.69417128 36.40689304 -13.30900268 37.5897242 -23 38 C-20.13200376 35.13200376 -16.86105875 35.19236617 -13 34.625 C-4.12271356 33.19329988 3.32691812 30.79567617 11 26 C11.66 26 12.32 26 13 26 C13.33 24.68 13.66 23.36 14 22 C14.66 22 15.32 22 16 22 C17.54642808 16.3297637 18.48517081 10.852795 19 5 C13.58016805 3.68027733 8.32000412 2.73055584 2.75 2.34375 C2.1725 2.2303125 1.595 2.116875 1 2 C0.67 1.34 0.34 0.68 0 0 Z " fill="#60A0C2" transform="translate(304,272)"/>
<path d="M0 0 C0.33 0 0.66 0 1 0 C1 1.65 1 3.3 1 5 C3.31 5.33 5.62 5.66 8 6 C8 6.33 8 6.66 8 7 C6.10424749 7.02721176 4.20838021 7.04649136 2.3125 7.0625 C0.72888672 7.07990234 0.72888672 7.07990234 -0.88671875 7.09765625 C-4 7 -4 7 -6.29125977 6.5065918 C-11.86186156 5.46477127 -17.59767059 5.75657258 -23.25 5.75 C-23.92340424 5.74866058 -24.59680847 5.74732117 -25.2906189 5.74594116 C-38.38966496 5.75160169 -50.62402102 6.74669866 -62.99609375 11.37109375 C-66.59819976 12.50157926 -70.24862095 12.7022715 -74 13 C-74 12.34 -74 11.68 -74 11 C-65.72080864 8.24957724 -57.58626457 6.19252457 -49.01953125 4.61328125 C-46.09409435 4.15547959 -46.09409435 4.15547959 -44 3 C-42.61182327 2.88273341 -41.21851286 2.82318594 -39.82568359 2.79467773 C-38.96494232 2.77473251 -38.10420105 2.75478729 -37.21737671 2.73423767 C-35.8220018 2.70916893 -35.8220018 2.70916893 -34.3984375 2.68359375 C-33.44683746 2.66281265 -32.49523743 2.64203156 -31.51480103 2.62062073 C-28.46827568 2.55511867 -25.42166257 2.4962372 -22.375 2.4375 C-20.31249084 2.39431541 -18.24999063 2.35070114 -16.1875 2.30664062 C-11.12509046 2.1994366 -6.06259245 2.09817098 -1 2 C-0.67 1.34 -0.34 0.68 0 0 Z " fill="#758DCC" transform="translate(198,233)"/>
<path d="M0 0 C1 3 1 3 1 5 C0.34 5 -0.32 5 -1 5 C-0.01 6.485 -0.01 6.485 1 8 C1 8.99 1 9.98 1 11 C-0.49609375 12.2109375 -0.49609375 12.2109375 -2.4375 13.375 C-5.50416991 15.29596102 -5.50416991 15.29596102 -6.625 18.6875 C-6.74875 19.450625 -6.8725 20.21375 -7 21 C-9.375 22.25 -9.375 22.25 -12 23 C-12.99 23.33 -13.98 23.66 -15 24 C-15.63960147 25.85853358 -15.63960147 25.85853358 -16 28 C-16.51450069 29.30842992 -17.05885705 30.60542317 -17.62890625 31.890625 C-17.94150391 32.59960938 -18.25410156 33.30859375 -18.57617188 34.0390625 C-18.90166016 34.76867187 -19.22714844 35.49828125 -19.5625 36.25 C-20.0565332 37.36761719 -20.0565332 37.36761719 -20.56054688 38.5078125 C-21.37085066 40.33980368 -22.18504434 42.17007345 -23 44 C-23.66 44 -24.32 44 -25 44 C-23.06612208 37.58135349 -20.58416297 31.72662846 -17.4375 25.8125 C-17.00566406 24.99531494 -16.57382813 24.17812988 -16.12890625 23.33618164 C-11.69613462 15.13603455 -6.63140655 6.63140655 0 0 Z " fill="#C94591" transform="translate(150,114)"/>
<path d="M0 0 C1.921875 0.671875 1.921875 0.671875 4 2 C6.88708578 10.11652418 6.22587101 19.51728856 6 28 C9.25857917 27.42531004 9.25857917 27.42531004 11.4375 25 C13 23 13 23 15.6875 22.25 C16.450625 22.1675 17.21375 22.085 18 22 C17.62488281 22.43570312 17.24976563 22.87140625 16.86328125 23.3203125 C15.23884922 25.21070947 13.61863771 27.10463968 12 29 C11.25169922 29.87398438 11.25169922 29.87398438 10.48828125 30.765625 C8.07703485 33.09132492 8.07703485 33.09132492 7 36 C5.02 36 3.04 36 1 36 C1.165 34.88625 1.33 33.7725 1.5 32.625 C2.67720423 21.87661351 3.09013826 10.42921662 0 0 Z " fill="#CD5595" transform="translate(336,272)"/>
<path d="M0 0 C3.59152048 0.56219194 6.14835742 1.45775032 9.21484375 3.3984375 C9.98376953 3.87796875 10.75269531 4.3575 11.54492188 4.8515625 C12.33447266 5.35429687 13.12402344 5.85703125 13.9375 6.375 C22.47184488 12.28179829 22.47184488 12.28179829 32.125 15.3125 C35.71823824 13.67210863 35.93354126 12.52084461 37.375 8.9375 C37.94011979 7.2995715 38.48917741 5.65566616 39 4 C39.33 4 39.66 4 40 4 C40.65450987 9.23607896 39.09690299 12.09046826 36.38671875 16.36328125 C34.33455189 18.78541622 32.25183834 18.96642155 29.1875 19.375 C24.91821774 18.8727315 23.22279456 16.75280368 20 14 C18.9275 13.835 17.855 13.67 16.75 13.5 C15.8425 13.335 14.935 13.17 14 13 C13.71125 12.2575 13.4225 11.515 13.125 10.75 C11.40116412 6.53617896 8.04608967 4.85671419 4 3 C1.16111676 2.57493952 1.16111676 2.57493952 -1 3 C-2.29969521 6.89908564 -2.6948108 10.95546978 -2 15 C-0.8218905 17.24040485 0.48799899 19.21296342 2.00390625 21.23828125 C2.33261719 21.81964844 2.66132813 22.40101563 3 23 C2.67 23.99 2.34 24.98 2 26 C-2.13306148 20.21863424 -4.91104347 15.52240944 -4.4765625 8.2734375 C-3.74254986 4.77183621 -2.29123743 2.72084444 0 0 Z " fill="#C2528D" transform="translate(235,201)"/>
<path d="M0 0 C-7.7743086 7.7743086 -23.60450282 8.62377423 -34 10 C-35.17900879 10.17490967 -36.35801758 10.34981934 -37.57275391 10.5300293 C-42.73365994 11.16830495 -47.86925465 11.12481924 -53.0625 11.09765625 C-54.09439453 11.0962413 -55.12628906 11.09482635 -56.18945312 11.09336853 C-59.45966589 11.08780642 -62.7298082 11.07526102 -66 11.0625 C-68.22786359 11.0574801 -70.45572826 11.05291805 -72.68359375 11.04882812 C-78.12241955 11.03784942 -83.56120474 11.02114938 -89 11 C-89 10.67 -89 10.34 -89 10 C-87.78642822 9.98541748 -86.57285645 9.97083496 -85.32250977 9.95581055 C-80.73548742 9.89697942 -76.14891355 9.81976852 -71.56225586 9.73754883 C-69.59292993 9.704692 -67.62351868 9.67654404 -65.65405273 9.65356445 C-44.70929944 9.9616568 -44.70929944 9.9616568 -25 4 C-22.87890625 3.7265625 -22.87890625 3.7265625 -20.5625 3.625 C-14.96611999 3.1913014 -9.97874587 1.55169375 -4.6875 -0.2578125 C-2 -1 -2 -1 0 0 Z " fill="#47AADA" transform="translate(307,364)"/>
<path d="M0 0 C6.89803241 1.17584248 13.23926097 2.95081175 19.75 5.5 C20.64251465 5.84313232 21.5350293 6.18626465 22.45458984 6.53979492 C30.2064164 9.57314771 37.77369441 12.98244383 45.27636719 16.5859375 C50.58585799 19.09068022 55.76466622 20.91566384 61.47021484 22.31323242 C64 23 64 23 66.57348633 24.0300293 C68.75110229 24.90050603 70.68951145 25.44040042 72.98828125 25.8515625 C74.04692383 26.04492188 74.04692383 26.04492188 75.12695312 26.2421875 C75.84818359 26.36851562 76.56941406 26.49484375 77.3125 26.625 C78.05306641 26.7590625 78.79363281 26.893125 79.55664062 27.03125 C81.37025044 27.35886984 83.18501524 27.68008494 85 28 C85 28.33 85 28.66 85 29 C79.42840623 29.16167571 74.42878226 28.71052538 69 27.375 C68.27304932 27.1996875 67.54609863 27.024375 66.79711914 26.84375 C56.07022968 24.13916136 45.78006488 20.16682673 36 15 C34.33446184 14.33051897 32.66769772 13.66408322 31 13 C29.30946981 12.21482484 27.62209394 11.42283182 25.9375 10.625 C20.99083173 8.3583326 15.99403745 6.57468476 10.81640625 4.9140625 C7.1611153 3.72774061 3.58628332 2.37933974 0 1 C0 0.67 0 0.34 0 0 Z " fill="#638DB4" transform="translate(218,243)"/>
<path d="M0 0 C-0.7734375 0.30292969 -1.546875 0.60585937 -2.34375 0.91796875 C-11.71102963 4.6857483 -18.67856691 7.65831049 -24.48828125 16.0625 C-26.90348057 19.15794925 -29.66715149 20.9490163 -33 23 C-33.66 23 -34.32 23 -35 23 C-35.06058594 23.73605469 -35.12117188 24.47210938 -35.18359375 25.23046875 C-36.27031136 28.91698926 -38.01430807 30.03600223 -41.0625 32.3125 C-41.98160156 33.00988281 -42.90070313 33.70726562 -43.84765625 34.42578125 C-44.91306641 35.20501953 -44.91306641 35.20501953 -46 36 C-46 31.7019042 -43.50924598 29.59614064 -40.8125 26.5 C-40.27222168 25.87851074 -39.73194336 25.25702148 -39.17529297 24.61669922 C-31.38764605 15.85980325 -12.78059684 -3.96639212 0 0 Z " fill="#53AACD" transform="translate(126,247)"/>
<path d="M0 0 C-1 3 -1 3 -3 4 C-6.06838329 4.95225688 -8.79684196 5.08429363 -12 5 C-14.32357511 4.81509993 -14.32357511 4.81509993 -17 7 C-19.32387947 7.39387788 -21.65793749 7.73486085 -24 8 C-23.67 9.32 -23.34 10.64 -23 12 C-26.05263664 12.98120464 -27.94736336 12.98120464 -31 12 C-31 11.01 -31 10.02 -31 9 C-30.360625 8.71125 -29.72125 8.4225 -29.0625 8.125 C-26.84793921 7.17176549 -26.84793921 7.17176549 -26 5 C-17.84805916 1.1574552 -9.04188784 -2.54303095 0 0 Z " fill="#42A2D4" transform="translate(392,291)"/>
<path d="M0 0 C3.67420682 0.49534464 7.31448069 1.04203632 10.953125 1.75390625 C26.37004306 4.70482176 41.41497428 4.56689666 57 3 C53.108733 5.39064542 48.93015739 5.85171923 44.5 6.5625 C42.98937731 6.81256063 41.47895313 7.06382411 39.96875 7.31640625 C38.97004883 7.47798218 38.97004883 7.47798218 37.95117188 7.64282227 C35.9737547 7.97396042 35.9737547 7.97396042 33.97583008 8.56665039 C30.66755658 9.29223861 27.46895787 8.47782197 24.1875 7.875 C23.4457251 7.74246826 22.7039502 7.60993652 21.93969727 7.47338867 C14.36919875 6.03035535 7.22461743 3.66059419 0 1 C0 0.67 0 0.34 0 0 Z " fill="#4DA8D4" transform="translate(247,301)"/>
<path d="M0 0 C1.0528418 0.0002417 1.0528418 0.0002417 2.12695312 0.00048828 C12.41922314 0.01693711 22.27418268 0.55602416 32.25 3.3125 C32.25 3.9725 32.25 4.6325 32.25 5.3125 C30.58388095 5.355221 28.91617115 5.35313832 27.25 5.3125 C26.755 4.8175 26.755 4.8175 26.25 4.3125 C24.05179062 4.23983192 21.87020129 4.31598453 19.671875 4.375 C17.25 4.3125 17.25 4.3125 15.17602539 3.81469727 C11.10938565 3.11673498 7.12985976 3.1898128 3.01171875 3.21484375 C2.13095169 3.2162587 1.25018463 3.21767365 0.34272766 3.21913147 C-2.45905003 3.22471063 -5.26074662 3.23725929 -8.0625 3.25 C-9.96679572 3.25501769 -11.87109269 3.25958013 -13.77539062 3.26367188 C-18.43362481 3.27467323 -23.09179867 3.29192351 -27.75 3.3125 C-27.75 2.9825 -27.75 2.6525 -27.75 2.3125 C-18.48744731 0.40518275 -9.42258086 -0.04427905 0 0 Z " fill="#CA5397" transform="translate(253.75,67.6875)"/>
<path d="M0 0 C3.14569587 0.93520688 4.7510624 1.70127488 6.875 4.25 C8.36106788 7.88261038 8.31376581 9.27766353 7 13 C2.61102842 19.53676619 -3.46168303 23.79021845 -10 28 C-10.66 27.67 -11.32 27.34 -12 27 C-11.43410156 26.52949219 -10.86820312 26.05898438 -10.28515625 25.57421875 C-9.55167969 24.95160156 -8.81820313 24.32898438 -8.0625 23.6875 C-7.33160156 23.07261719 -6.60070312 22.45773437 -5.84765625 21.82421875 C-3.76179634 20.04024481 -3.76179634 20.04024481 -3 17 C-2.360625 16.401875 -1.72125 15.80375 -1.0625 15.1875 C1.49764821 12.47219129 2.35053902 10.68027891 3 7 C2.27194876 4.43374847 1.24226715 2.38897529 0 0 Z " fill="#5C9BC9" transform="translate(430,286)"/>
<path d="M0 0 C0.66 0 1.32 0 2 0 C1.49172987 2.79548571 0.8656376 5.41877151 -0.00390625 8.12890625 C-1.11558819 12.44920742 -1.40569404 16.43853871 -1.5625 20.875 C-1.87695822 28.87695822 -1.87695822 28.87695822 -3 30 C-3.02650913 33.74157397 -2.97099869 37.47095921 -2.87304688 41.2109375 C-2.81207604 45.61518393 -2.92087195 48.98850588 -5 53 C-5.33 53 -5.66 53 -6 53 C-6.53810922 34.67945081 -6.1512329 17.42849321 0 0 Z " fill="#B9418C" transform="translate(123,162)"/>
<path d="M0 0 C6.0546875 -0.1953125 6.0546875 -0.1953125 8 0 C8.66 0.66 9.32 1.32 10 2 C10.33 1.34 10.66 0.68 11 0 C12.32 0.66 13.64 1.32 15 2 C15 2.99 15 3.98 15 5 C14.34 5.66 13.68 6.32 13 7 C13 7.66 13 8.32 13 9 C19.34814376 8.57769894 19.34814376 8.57769894 25 6 C26.26804566 3.9664052 26.26804566 3.9664052 27 2 C27.99 2.33 28.98 2.66 30 3 C24.90163934 10.3442623 24.90163934 10.3442623 20.84765625 11.7421875 C14.32884287 12.13171238 9.86867756 9.02113214 5 5 C3.22153845 3.39565357 1.61625103 1.77266242 0 0 Z " fill="#D94899" transform="translate(273,258)"/>
<path d="M0 0 C0.66 0.66 1.32 1.32 2 2 C-8.87090251 18.39630213 -21.44111712 32.60619584 -39 42 C-39.33 41.34 -39.66 40.68 -40 40 C-39.34 40 -38.68 40 -38 40 C-38 39.01 -38 38.02 -38 37 C-37.33613281 36.68546875 -36.67226562 36.3709375 -35.98828125 36.046875 C-30.43359692 33.35467763 -25.63871698 30.73644724 -21.3125 26.25 C-20 25 -20 25 -18 25 C-17.690625 23.576875 -17.690625 23.576875 -17.375 22.125 C-16.92125 21.09375 -16.4675 20.0625 -16 19 C-13 17.875 -13 17.875 -10 17 C-8.96223109 15.22896328 -8.96223109 15.22896328 -8 13 C-6.83003639 11.11400785 -5.64121696 9.23963045 -4.4375 7.375 C-2.08171635 3.76549898 -2.08171635 3.76549898 0 0 Z " fill="#B64F81" transform="translate(291,122)"/>
<path d="M0 0 C4.71370756 0.64985095 8.57686444 2.51561392 12.8125 4.5625 C13.50537109 4.89185547 14.19824219 5.22121094 14.91210938 5.56054688 C16.61044948 6.36872251 18.30555769 7.18368377 20 8 C20 8.66 20 9.32 20 10 C20.763125 9.938125 21.52625 9.87625 22.3125 9.8125 C25 10 25 10 26.8125 11.375 C28 13 28 13 28 15 C28.7425 15.12375 29.485 15.2475 30.25 15.375 C32.80141485 15.95486701 34.7267573 16.73708739 37 18 C36.01 18.495 36.01 18.495 35 19 C33.29296875 18.3984375 33.29296875 18.3984375 31.1875 17.375 C27.41286457 15.596566 23.62119063 14.1400301 19.6875 12.75 C13.29930057 10.33467371 3.18173178 6.36346356 0 0 Z " fill="#47AAD3" transform="translate(125,341)"/>
<path d="M0 0 C0.66 0.33 1.32 0.66 2 1 C1.61328125 1.4125 1.2265625 1.825 0.828125 2.25 C-2.03127441 5.42081915 -4.32469486 8.3613409 -6.125 12.25 C-7.58897125 15.39753819 -8.83924569 17.31426437 -12 19 C-12.66 19 -13.32 19 -14 19 C-14 19.66 -14 20.32 -14 21 C-14.66 21 -15.32 21 -16 21 C-16.65110451 16.65930324 -15.84446503 14.2916161 -13.375 10.8125 C-10.62211711 7.39087434 -8.05021951 5.76096501 -4 4 C-1.68581709 1.93832739 -1.68581709 1.93832739 0 0 Z " fill="#D84A99" transform="translate(306,206)"/>
<path d="M0 0 C4.65660905 0.63564142 8.82908794 1.852556 13.25 3.4375 C14.47203125 3.86933594 15.6940625 4.30117187 16.953125 4.74609375 C20 6 20 6 22 8 C23.62564094 8.65656398 25.27616497 9.25236552 26.9375 9.8125 C30.8680497 11.18742571 34.6175439 12.70679408 38.375 14.5 C44.39217557 17.31265949 50.62200789 19.18495932 57 21 C57 21.33 57 21.66 57 22 C51.1236632 22.51224646 46.42419411 20.66972388 41 18.6875 C40.1234375 18.37876953 39.246875 18.07003906 38.34375 17.75195312 C33.72354346 16.09939431 29.36056054 14.26803149 25 12 C22.76474965 11.31363375 22.76474965 11.31363375 21 11 C21 10.34 21 9.68 21 9 C20.17242187 8.73445313 19.34484375 8.46890625 18.4921875 8.1953125 C14.6463115 6.87893884 10.89140591 5.40054038 7.125 3.875 C6.43664062 3.59785156 5.74828125 3.32070312 5.0390625 3.03515625 C3.35873499 2.35835767 1.67927658 1.67940197 0 1 C0 0.67 0 0.34 0 0 Z " fill="#3BACDE" transform="translate(228,248)"/>
<path d="M0 0 C7.66326621 7.23900234 12.46016833 16.50152938 16.9375 25.9375 C17.23188965 26.55157715 17.5262793 27.1656543 17.82958984 27.79833984 C19.53614701 31.51427946 20.51076562 34.94368966 21 39 C19.68 39 18.36 39 17 39 C17 37.35 17 35.7 17 34 C15.515 33.505 15.515 33.505 14 33 C14 29.7 14 26.4 14 23 C13.34 23 12.68 23 12 23 C6 11 6 11 4.9296875 8.671875 C4.10405228 6.8168776 4.10405228 6.8168776 2 6 C1.27306096 4.02111039 0.60183749 2.02045442 0 0 Z " fill="#BE588C" transform="translate(362,121)"/>
<path d="M0 0 C-0.9178125 0.24234375 -1.835625 0.4846875 -2.78125 0.734375 C-8.84706411 2.3910049 -14.59415222 4.01980251 -20.1328125 7.0625 C-22.26921134 8.13516888 -24.40827405 8.84510429 -26.6875 9.5625 C-30.11875146 10.65291497 -33.04885446 11.87886415 -36 14 C-36.33 14.66 -36.66 15.32 -37 16 C-40.88701855 17.94350927 -44.71093278 18.49540386 -49 19 C-40.32458506 9.79810869 -12.64260659 -4.06369497 0 0 Z M-44 18 C-42 19 -42 19 -42 19 Z " fill="#BF5B92" transform="translate(226,72)"/>
<path d="M0 0 C1.38842979 4.16528938 -0.20850424 6.91279857 -1.75 10.8125 C-2.01554687 11.51181641 -2.28109375 12.21113281 -2.5546875 12.93164062 C-4.15323908 17.07933878 -5.94303337 21.05335016 -8 25 C-8.33 25 -8.66 25 -9 25 C-9.19095979 17.94509679 -9.32930928 11.69676417 -7 5 C-7 4.01 -7 3.02 -7 2 C-6.34 2 -5.68 2 -5 2 C-4.67 2.99 -4.34 3.98 -4 5 C-3.34 4.01 -2.68 3.02 -2 2 C-1.34 2 -0.68 2 0 2 C0 1.34 0 0.68 0 0 Z " fill="#D15391" transform="translate(385,238)"/>
<path d="M0 0 C0.66 0 1.32 0 2 0 C1.7834375 0.88377319 1.7834375 0.88377319 1.5625 1.78540039 C0.06502374 8.4402005 -0.18412465 14.63869733 0 21.4375 C0.05098025 23.37347508 0.09305967 25.30971096 0.125 27.24609375 C0.14820313 28.08841553 0.17140625 28.9307373 0.1953125 29.79858398 C0 32 0 32 -2 35 C-5.2578125 35.29296875 -5.2578125 35.29296875 -9.125 35.1875 C-11.04699219 35.14689453 -11.04699219 35.14689453 -13.0078125 35.10546875 C-13.99523437 35.07066406 -14.98265625 35.03585938 -16 35 C-17.5625 32.1875 -17.5625 32.1875 -19 29 C-18.505 27.515 -18.505 27.515 -18 26 C-15 31.75 -15 31.75 -15 34 C-12.36 33.67 -9.72 33.34 -7 33 C-7 32.34 -7 31.68 -7 31 C-6.01 31.33 -5.02 31.66 -4 32 C-3.92483154 30.91900024 -3.92483154 30.91900024 -3.84814453 29.81616211 C-3.61476689 26.52267969 -3.36998256 23.23013871 -3.125 19.9375 C-3.04636719 18.80376953 -2.96773437 17.67003906 -2.88671875 16.50195312 C-2.45004204 10.74117962 -1.88977144 5.47080891 0 0 Z " fill="#B04B82" transform="translate(199,201)"/>
<path d="M0 0 C0.65597672 0.00141495 1.31195343 0.0028299 1.98780823 0.00428772 C4.05572327 0.00982594 6.12352467 0.02236623 8.19140625 0.03515625 C9.60481613 0.04017926 11.01822773 0.04474075 12.43164062 0.04882812 C15.87243193 0.05977499 19.31315797 0.07699587 22.75390625 0.09765625 C22.75390625 0.42765625 22.75390625 0.75765625 22.75390625 1.09765625 C21.48160156 1.13503906 20.20929688 1.17242187 18.8984375 1.2109375 C9.29980574 1.5486518 -0.17075462 2.17617923 -9.68359375 3.53515625 C-10.55201904 3.65737549 -11.42044434 3.77959473 -12.31518555 3.90551758 C-16.82893777 4.5867635 -20.92253797 5.59184385 -25.24609375 7.09765625 C-28.62109375 7.22265625 -28.62109375 7.22265625 -31.24609375 7.09765625 C-31.24609375 7.75765625 -31.24609375 8.41765625 -31.24609375 9.09765625 C-34.21609375 9.75765625 -37.18609375 10.41765625 -40.24609375 11.09765625 C-38.63848739 7.88244353 -35.48877378 7.21163817 -32.24609375 6.09765625 C-29.18984425 5.27230545 -26.12292417 4.52074345 -23.04296875 3.7890625 C-20.13474968 3.11215016 -20.13474968 3.11215016 -16.93359375 1.97265625 C-11.38567358 0.16635666 -5.79483421 -0.02487053 0 0 Z " fill="#30ADE4" transform="translate(159.24609375,238.90234375)"/>
<path d="M0 0 C0.66 0.33 1.32 0.66 2 1 C-0.75 7.875 -0.75 7.875 -3 9 C-4.05175052 10.81466117 -4.05175052 10.81466117 -5 12.9375 C-6.18413003 15.48615488 -6.98757159 16.98757159 -9 19 C-9.495 20.2684375 -9.495 20.2684375 -10 21.5625 C-11 24 -11 24 -13 25 C-13 26.98 -13 28.96 -13 31 C-11.68 31.66 -10.36 32.32 -9 33 C-11.375 33.125 -11.375 33.125 -14 33 C-16 31 -16 31 -16.37890625 28.328125 C-15.90067066 24.12754026 -14.17369857 21.23286918 -11.9375 17.75 C-11.53281494 17.09829834 -11.12812988 16.44659668 -10.71118164 15.77514648 C-7.3324197 10.38466345 -3.75702136 5.13419318 0 0 Z " fill="#4FACCE" transform="translate(77,284)"/>
<path d="M0 0 C0.66 0 1.32 0 2 0 C1.71840827 3.48005727 1.42285673 6.95880012 1.125 10.4375 C1.04636719 11.41138672 0.96773438 12.38527344 0.88671875 13.38867188 C0.36237101 19.41867094 -0.55315762 25.12144293 -2 31 C-2.99 30.67 -3.98 30.34 -5 30 C-4.41196203 26.97580475 -3.77321882 23.98241547 -3 21 C-3.66 20.67 -4.32 20.34 -5 20 C-5 16 -5 16 -3 13 C-2.83300768 9.87478167 -2.83300768 9.87478167 -3 7 C-2.01 6.67 -1.02 6.34 0 6 C0 4.02 0 2.04 0 0 Z " fill="#CB5596" transform="translate(389,206)"/>
<path d="M0 0 C0.33 0.66 0.66 1.32 1 2 C-0.33291491 4.53437262 -1.71666734 6.90209883 -3.25 9.3125 C-3.69585449 10.02148438 -4.14170898 10.73046875 -4.60107422 11.4609375 C-9.13630905 18.50070501 -14.40482367 24.78786507 -20 31 C-20.66 30.67 -21.32 30.34 -22 30 C-21.505 28.515 -21.505 28.515 -21 27 C-20.01 27 -19.02 27 -18 27 C-17.8453125 26.1646875 -17.8453125 26.1646875 -17.6875 25.3125 C-17 23 -17 23 -15.5625 20.625 C-13.8949424 17.82350323 -12.94086702 15.1120986 -12 12 C-10.68 12 -9.36 12 -8 12 C-6.68 9.69 -5.36 7.38 -4 5 C-3.34 5 -2.68 5 -2 5 C-2 3.68 -2 2.36 -2 1 C-1.34 0.67 -0.68 0.34 0 0 Z " fill="#DB4E99" transform="translate(375,263)"/>
<path d="M0 0 C-0.66 0 -1.32 0 -2 0 C-2 0.66 -2 1.32 -2 2 C-2.66 2 -3.32 2 -4 2 C-4 5.11418045 -3.57333407 7.28011144 -1.609375 9.74609375 C5.54529075 16.49492762 14.75135171 20.04209897 24 23 C23.67 23.99 23.34 24.98 23 26 C12.97695172 22.01452395 3.49818141 17.72772695 -5 11 C-6.28317892 7.15046324 -6.06643637 4.05261865 -6 0 C-3 -1 -3 -1 0 0 Z " fill="#589BB6" transform="translate(215,293)"/>
<path d="M0 0 C0.33 0 0.66 0 1 0 C1.08636719 0.69867188 1.17273438 1.39734375 1.26171875 2.1171875 C1.68118339 4.8340869 2.15383504 7.38299498 3 10 C5.27102833 11.50845917 5.27102833 11.50845917 8 12 C8.75539062 12.6084375 9.51078125 13.216875 10.2890625 13.84375 C13.10176079 16.08093942 15.83168167 17.56473122 19.0625 19.125 C20.08472656 19.62257813 21.10695312 20.12015625 22.16015625 20.6328125 C23.56587891 21.30957031 23.56587891 21.30957031 25 22 C26.33464998 22.66402684 27.66858787 23.32950468 29 24 C22.40915443 24.47933422 17.70876175 23.39676803 12 20 C9.25 17.4375 9.25 17.4375 7 15 C6.113125 14.525625 5.22625 14.05125 4.3125 13.5625 C1.15966046 11.43220302 0.791547 9.66989973 0 6 C-0.125 2.625 -0.125 2.625 0 0 Z " fill="#40AADC" transform="translate(207,294)"/>
<path d="M0 0 C-0.61609051 4.00458831 -2.55060653 6.83019669 -5 10 C-5.99 10 -6.98 10 -8 10 C-8.268125 10.61875 -8.53625 11.2375 -8.8125 11.875 C-10 14 -10 14 -13 16 C-14.32 16 -15.64 16 -17 16 C-14.6610483 10.76028957 -6.1376502 0 0 0 Z " fill="#CD3F8F" transform="translate(170,96)"/>
<path d="M0 0 C0.99 0.66 1.98 1.32 3 2 C2.67 2.66 2.34 3.32 2 4 C0.865625 4.12375 -0.26875 4.2475 -1.4375 4.375 C-3.2009375 4.684375 -3.2009375 4.684375 -5 5 C-6.39238047 6.86747263 -6.39238047 6.86747263 -7 9 C-9.62669566 11.62669566 -11.34186804 11.45805452 -15 12 C-17.67966458 12.62172074 -20.33641876 13.31114278 -23 14 C-23 13.01 -23 12.02 -23 11 C-20.5 9.3125 -20.5 9.3125 -18 8 C-18 8.66 -18 9.32 -18 10 C-17.01 9.34 -16.02 8.68 -15 8 C-12.35982365 7.18220159 -9.69729409 6.6190511 -7 6 C-6.67 4.68 -6.34 3.36 -6 2 C-5.01 2.33 -4.02 2.66 -3 3 C-2.67 2.34 -2.34 1.68 -2 1 C-1.34 0.67 -0.68 0.34 0 0 Z " fill="#46A1D7" transform="translate(351,344)"/>
<path d="M0 0 C4 0 4 0 5.6875 1.125 C7.4690236 3.67003371 7.53677597 5.93114082 8 9 C8.515625 10.155 9.03125 11.31 9.5625 12.5 C11.93263176 18.39081293 11.23634685 24.767446 11 31 C10.01 31.33 9.02 31.66 8 32 C7.26676204 34.01508358 7.26676204 34.01508358 7 36 C6.67 35.34 6.34 34.68 6 34 C6.309375 33.195625 6.61875 32.39125 6.9375 31.5625 C9.64016764 22.50061437 7.95531681 14.41841077 4 6 C2.77509244 3.85641176 1.49310738 1.97303475 0 0 Z " fill="#C05C8E" transform="translate(350,208)"/>
<path d="M0 0 C0.20496094 0.639375 0.40992187 1.27875 0.62109375 1.9375 C1.85920671 4.28784014 1.85920671 4.28784014 4.72265625 4.6875 C5.82480469 4.790625 6.92695312 4.89375 8.0625 5 C14.00858606 5.72674385 18.72989354 7.19472369 24 10 C20.25 11.125 20.25 11.125 18 10 C14.49572251 9.72019077 10.991489 9.5527924 7.48046875 9.37890625 C4.25406125 9.02765874 1.91625557 8.37202881 -1 7 C-1.04254356 5.00045254 -1.04080783 2.99958364 -1 1 C-0.67 0.67 -0.34 0.34 0 0 Z " fill="#36AED9" transform="translate(64,308)"/>
<path d="M0 0 C0.33 0 0.66 0 1 0 C3.32002389 11.80726442 4.41117773 22.96924418 4 35 C2.68 35 1.36 35 0 35 C0.16749756 34.32042236 0.33499512 33.64084473 0.50756836 32.94067383 C1.07925958 29.52668235 1.01139151 26.40855604 0.87890625 22.94921875 C0.85529526 22.29041214 0.83168427 21.63160553 0.80735779 20.95283508 C0.73124327 18.86414178 0.64699771 16.77586926 0.5625 14.6875 C0.50922687 13.26499403 0.45648689 11.84246799 0.40429688 10.41992188 C0.27570006 6.94636091 0.13981289 3.47312966 0 0 Z " fill="#C65591" transform="translate(386,170)"/>
<path d="M0 0 C1.32 0.33 2.64 0.66 4 1 C4.12117188 1.58007812 4.24234375 2.16015625 4.3671875 2.7578125 C4.53476562 3.53898437 4.70234375 4.32015625 4.875 5.125 C5.03742188 5.89070313 5.19984375 6.65640625 5.3671875 7.4453125 C5.96426337 10.07966401 5.96426337 10.07966401 7.08203125 12.82421875 C8.18717349 16.64754064 8.08459863 19.72432433 7.8125 23.6875 C7.73644531 24.99074219 7.66039062 26.29398438 7.58203125 27.63671875 C6.96979717 31.17452776 6.54752492 31.7550335 4 34 C4.01047363 33.38068604 4.02094727 32.76137207 4.03173828 32.12329102 C4.07376099 29.26973665 4.09947127 26.41624774 4.125 23.5625 C4.14175781 22.58861328 4.15851563 21.61472656 4.17578125 20.61132812 C4.21717457 14.42302626 3.73354798 8.95831351 2 3 C1.34 2.67 0.68 2.34 0 2 C0 1.34 0 0.68 0 0 Z " fill="#BB5B8C" transform="translate(294,119)"/>
<path d="M0 0 C-20.61990132 10.90689268 -20.61990132 10.90689268 -29 15 C-29.33 14.01 -29.66 13.02 -30 12 C-26.77208445 9.8480563 -25.71599191 9.79913557 -22 10 C-22 9.01 -22 8.02 -22 7 C-20.783125 6.731875 -19.56625 6.46375 -18.3125 6.1875 C-14.75610964 5.31411085 -12.10852317 3.95392885 -9 2 C-8.01 2 -7.02 2 -6 2 C-6 1.34 -6 0.68 -6 0 C-3 -1 -3 -1 0 0 Z " fill="#B45085" transform="translate(250,165)"/>
<path d="M0 0 C4.00748653 0.58487641 6.85736768 1.84394575 10.3125 3.9375 C11.19550781 4.46214844 12.07851562 4.98679688 12.98828125 5.52734375 C13.65214844 6.01332031 14.31601563 6.49929687 15 7 C15 7.66 15 8.32 15 9 C13.06221932 8.06986527 11.17849574 7.11081963 9.3515625 5.9765625 C5.75897085 3.76453009 3.36430546 2.47099328 -1 3 C-2.29969521 6.89908564 -2.6948108 10.95546978 -2 15 C-0.8218905 17.24040485 0.48799899 19.21296342 2.00390625 21.23828125 C2.33261719 21.81964844 2.66132813 22.40101563 3 23 C2.67 23.99 2.34 24.98 2 26 C-2.13306148 20.21863424 -4.91104347 15.52240944 -4.4765625 8.2734375 C-3.74254986 4.77183621 -2.29123743 2.72084444 0 0 Z " fill="#AC5684" transform="translate(235,201)"/>
<path d="M0 0 C0.66 0 1.32 0 2 0 C2.67258667 2.33163378 3.33847444 4.6652039 4 7 C4.18304688 7.62261719 4.36609375 8.24523437 4.5546875 8.88671875 C5.10079642 11.47834091 5.16948863 13.91482814 5.1875 16.5625 C5.20167969 17.51253906 5.21585937 18.46257812 5.23046875 19.44140625 C5 22 5 22 3 25 C-0.625 25.6875 -0.625 25.6875 -4 26 C-3.01 25.34 -2.02 24.68 -1 24 C0.84803945 22.91272336 0.84803945 22.91272336 2 21 C1.88974406 18.43431443 1.64260126 16.19177376 1.1875 13.6875 C0.42609017 9.04982194 -0.13855623 4.7036195 0 0 Z " fill="#BF568A" transform="translate(295,161)"/>
<path d="M0 0 C-4.29928229 4.29928229 -12.599323 6.6232783 -18.609375 7.2890625 C-20.03749026 7.26374131 -21.46554436 7.20580903 -22.890625 7.109375 C-26.63404147 6.91527192 -30.29003882 7.52889382 -34 8 C-34 7.67 -34 7.34 -34 7 C-29.42520219 5.24301244 -25.16015095 3.88447711 -20.25 3.5625 C-14.76559557 3.17445252 -9.86843701 1.51397021 -4.6875 -0.2578125 C-2 -1 -2 -1 0 0 Z " fill="#39A4D9" transform="translate(307,364)"/>
<path d="M0 0 C0.33 0 0.66 0 1 0 C1 1.65 1 3.3 1 5 C-14.51 5 -30.02 5 -46 5 C-43.61556332 2.61556332 -43.07540218 2.73816495 -39.82568359 2.68115234 C-38.96494232 2.66128265 -38.10420105 2.64141296 -37.21737671 2.62094116 C-35.8220018 2.60361435 -35.8220018 2.60361435 -34.3984375 2.5859375 C-33.44683746 2.56657135 -32.49523743 2.5472052 -31.51480103 2.5272522 C-28.46829253 2.46735868 -25.42174646 2.42103205 -22.375 2.375 C-20.3124833 2.33682921 -18.2499827 2.29777802 -16.1875 2.2578125 C-11.12513034 2.16164914 -6.06268605 2.07765437 -1 2 C-0.67 1.34 -0.34 0.68 0 0 Z " fill="#8972B6" transform="translate(198,233)"/>
<path d="M0 0 C5.4963063 0.75989201 10.96614117 1.64105439 16.4375 2.5625 C17.67790039 2.77036133 17.67790039 2.77036133 18.94335938 2.98242188 C20.96236489 3.32086789 22.98120022 3.66032893 25 4 C25 4.66 25 5.32 25 6 C26.32 6.33 27.64 6.66 29 7 C24.79719098 8.16181548 21.88813782 7.74897854 17.6875 6.6875 C16.553125 6.40648437 15.41875 6.12546875 14.25 5.8359375 C13.1775 5.56007813 12.105 5.28421875 11 5 C9.39593433 4.60375759 7.79178774 4.20784234 6.1875 3.8125 C5.135625 3.544375 4.08375 3.27625 3 3 C3 2.34 3 1.68 3 1 C2.01 0.67 1.02 0.34 0 0 Z " fill="#3BACDE" transform="translate(177,365)"/>
<path d="M0 0 C0.66 1.32 1.32 2.64 2 4 C-0.5051971 7.48938167 -1.80462913 9.13199223 -6 10 C-6.33 10.99 -6.66 11.98 -7 13 C-7.515625 12.773125 -8.03125 12.54625 -8.5625 12.3125 C-12.28807032 11.83486278 -14.64516304 13.38709761 -18 15 C-18 14.01 -18 13.02 -18 12 C-12.375 9 -12.375 9 -9 9 C-6.99690671 8.68578929 -4.99628664 8.3548954 -3 8 C-3.061875 7.05125 -3.12375 6.1025 -3.1875 5.125 C-3.125625 4.09375 -3.06375 3.0625 -3 2 C-2.01 1.34 -1.02 0.68 0 0 Z " fill="#4798CF" transform="translate(395,320)"/>
<path d="M0 0 C0 3 0 3 -1.53125 4.53515625 C-2.1809375 5.03917969 -2.830625 5.54320312 -3.5 6.0625 C-5.43479972 7.52943459 -5.43479972 7.52943459 -7 9 C-7 9.66 -7 10.32 -7 11 C-9.64 11.33 -12.28 11.66 -15 12 C-15 11.34 -15 10.68 -15 10 C-15.66 9.67 -16.32 9.34 -17 9 C-16.236875 8.855625 -15.47375 8.71125 -14.6875 8.5625 C-11.91827092 8.0367406 -11.91827092 8.0367406 -9 7 C-8.071875 5.515 -8.071875 5.515 -7.125 4 C-5 1 -5 1 -2.25 0.125 C-1.5075 0.08375 -0.765 0.0425 0 0 Z " fill="#529DD2" transform="translate(426,304)"/>
<path d="M0 0 C2.39358936 0.23486159 4.78680905 0.47282898 7.1796875 0.71484375 C8.99699027 0.89858766 10.81467957 1.07856702 12.6328125 1.25390625 C18.88741055 1.88741055 18.88741055 1.88741055 20 3 C23.14723252 3.44692204 26.29312721 3.82056826 29.453125 4.16210938 C33.00513794 4.58710703 34.96785319 4.9785688 38 7 C37.67 7.66 37.34 8.32 37 9 C36.01 8.34 35.02 7.68 34 7 C31.96489844 6.47195185 31.96489844 6.47195185 29.71875 6.18359375 C28.88118164 6.05960205 28.04361328 5.93561035 27.18066406 5.80786133 C25.85373535 5.62453247 25.85373535 5.62453247 24.5 5.4375 C23.60249023 5.30819092 22.70498047 5.17888184 21.78027344 5.0456543 C15.5366704 4.16394563 9.29362705 3.41861281 3 3 C3 2.34 3 1.68 3 1 C2.01 0.67 1.02 0.34 0 0 Z " fill="#47A8DB" transform="translate(285,270)"/>
<path d="M0 0 C-3.42346555 3.14958831 -6.44262737 3.56179109 -11 4 C-10.67 5.32 -10.34 6.64 -10 8 C-13.05263664 8.98120464 -14.94736336 8.98120464 -18 8 C-18 7.01 -18 6.02 -18 5 C-14.10228009 1.77430076 -4.81948095 -2.40974048 0 0 Z " fill="#3EA5DC" transform="translate(379,295)"/>
<path d="M0 0 C7.34442273 1.20931862 14.02078351 3.27866892 20.9375 6 C21.86884766 6.35578125 22.80019531 6.7115625 23.75976562 7.078125 C27.45597453 8.50857119 30.68852913 9.79235275 34 12 C34 12.66 34 13.32 34 14 C33.49210937 13.72800781 32.98421875 13.45601563 32.4609375 13.17578125 C29.25586295 11.64446786 25.9529715 10.41958123 22.625 9.1875 C21.92761719 8.92759277 21.23023438 8.66768555 20.51171875 8.39990234 C13.69730891 5.8691439 6.85429917 3.4204244 0 1 C0 0.67 0 0.34 0 0 Z " fill="#5494B2" transform="translate(218,243)"/>
<path d="M0 0 C2.39674267 0.11456128 4.79181218 0.24128719 7.1875 0.375 C8.19780273 0.42140625 8.19780273 0.42140625 9.22851562 0.46875 C13.1805831 0.70009053 16.48832088 1.12150988 20 3 C22.41449309 6.74662721 23.39258795 9.55066995 23 14 C21 13 21 13 20.3671875 11.15234375 C20.20476562 10.42144531 20.04234375 9.69054687 19.875 8.9375 C19.70742188 8.20402344 19.53984375 7.47054688 19.3671875 6.71484375 C19.24601562 6.14894531 19.12484375 5.58304687 19 5 C13.58016805 3.68027733 8.32000412 2.73055584 2.75 2.34375 C2.1725 2.2303125 1.595 2.116875 1 2 C0.67 1.34 0.34 0.68 0 0 Z " fill="#6096B4" transform="translate(304,272)"/>
<path d="M0 0 C0.66 0 1.32 0 2 0 C2 3.3 2 6.6 2 10 C-4.6 10 -11.2 10 -18 10 C-17.67 9.34 -17.34 8.68 -17 8 C-11.39 8 -5.78 8 0 8 C0 5.36 0 2.72 0 0 Z " fill="#B34693" transform="translate(177,226)"/>
<path d="M0 0 C0.99 0 1.98 0 3 0 C3.28875 1.0725 3.5775 2.145 3.875 3.25 C4.72820109 6.09400364 5.5636503 8.43508983 7 11 C5.25 11.75 5.25 11.75 3 12 C-0.35273547 9.70098139 -0.9457405 8.2712975 -1.75 4.25 C-1.8325 3.1775 -1.915 2.105 -2 1 C-0.68 1.99 0.64 2.98 2 4 C2 3.34 2 2.68 2 2 C1.34 2 0.68 2 0 2 C0 1.34 0 0.68 0 0 Z " fill="#DE4D9C" transform="translate(337,263)"/>
<path d="M0 0 C5.65020618 0.60108576 10.66164461 2.07528683 16 4 C13.98537098 6.22201731 13.28846518 6.94099576 10.25 7.5625 C5.70667739 6.7761557 3.10525328 4.3165575 0 1 C0 0.67 0 0.34 0 0 Z " fill="#DB4D9A" transform="translate(287,72)"/>
<path d="M0 0 C0.61875 0.33 1.2375 0.66 1.875 1 C3.91018344 2.14193235 3.91018344 2.14193235 6 2 C6.5878125 3.85625 6.5878125 3.85625 7.1875 5.75 C8.68789076 9.77699217 10.46277138 11.4980578 14 14 C15.37368345 15.63356951 16.71937515 17.2925002 18 19 C17.67 19.66 17.34 20.32 17 21 C4.56777196 9.01803374 4.56777196 9.01803374 0 2 C0 1.34 0 0.68 0 0 Z " fill="#B65286" transform="translate(238,227)"/>
<path d="M0 0 C-0.96099609 0.67482422 -0.96099609 0.67482422 -1.94140625 1.36328125 C-8.7071373 6.39472654 -12.91904292 11.64887201 -17 19 C-18 16 -18 16 -18 13 C-17.34 13 -16.68 13 -16 13 C-16 12.34 -16 11.68 -16 11 C-15.34 11 -14.68 11 -14 11 C-13.95875 10.443125 -13.9175 9.88625 -13.875 9.3125 C-12.55618753 5.82706704 -9.8706356 4.27258651 -7 2 C-6.67 1.34 -6.34 0.68 -6 0 C-2.49056604 -1.24528302 -2.49056604 -1.24528302 0 0 Z " fill="#AF4B83" transform="translate(219,181)"/>
<path d="M0 0 C0.66 0.66 1.32 1.32 2 2 C1.98252073 4.75589777 1.86136729 7.38786676 1.625 10.125 C1.56828125 10.87910156 1.5115625 11.63320313 1.453125 12.41015625 C1.3115535 14.27418096 1.15700041 16.13721137 1 18 C2.65 17.34 4.3 16.68 6 16 C5.01 18.475 5.01 18.475 4 21 C2.02 21 0.04 21 -2 21 C-1.01 10.605 -1.01 10.605 0 0 Z " fill="#A36390" transform="translate(339,287)"/>
<path d="M0 0 C9.64371409 0.23469216 17.50536686 3.67216558 26 8 C22.46906515 7.57628782 19.24898096 7.08465353 15.875 5.9375 C12.27482582 4.76353016 9.44681398 4.27659301 6 6 C6 5.34 6 4.68 6 4 C4.02 3.01 2.04 2.02 0 1 C0 0.67 0 0.34 0 0 Z " fill="#31AEE1" transform="translate(230,292)"/>
<path d="M0 0 C0.99 0.33 1.98 0.66 3 1 C-2.17697564 8.45750832 -2.17697564 8.45750832 -6.2578125 9.671875 C-11.66090466 9.85503067 -14.87476285 8.38480997 -19 5 C-16 5 -16 5 -14 6 C-7.63205051 6.49692649 -7.63205051 6.49692649 -2 4 C-0.73195434 1.9664052 -0.73195434 1.9664052 0 0 Z " fill="#B55A9C" transform="translate(300,260)"/>
<path d="M0 0 C0.99 0.495 0.99 0.495 2 1 C2.73075648 3.3140622 3.40138258 5.64828869 4 8 C6.64 7.67 9.28 7.34 12 7 C12 6.34 12 5.68 12 5 C12.99 5.33 13.98 5.66 15 6 C15.33 4.02 15.66 2.04 16 0 C16.33 0 16.66 0 17 0 C17 1.65 17 3.3 17 5 C17.66 5.33 18.32 5.66 19 6 C18.01 7.485 18.01 7.485 17 9 C13.7421875 9.29296875 13.7421875 9.29296875 9.875 9.1875 C7.95300781 9.14689453 7.95300781 9.14689453 5.9921875 9.10546875 C5.00476563 9.07066406 4.01734375 9.03585938 3 9 C0 3.375 0 3.375 0 0 Z " fill="#C0448E" transform="translate(180,227)"/>
<path d="M0 0 C0.66 0.33 1.32 0.66 2 1 C1.61328125 1.4125 1.2265625 1.825 0.828125 2.25 C-2.0215987 5.41008965 -4.27062431 8.28174897 -6 12.1875 C-7.88541768 16.30186484 -10.06432916 17.85327045 -14 20 C-14 19.01 -14 18.02 -14 17 C-13.38125 16.814375 -12.7625 16.62875 -12.125 16.4375 C-8.97688582 14.30789335 -8.9884648 11.58318488 -8 8 C-6.125 5.8125 -6.125 5.8125 -4 4 C-3.2575 3.2575 -2.515 2.515 -1.75 1.75 C-0.88375 0.88375 -0.88375 0.88375 0 0 Z " fill="#B95484" transform="translate(306,206)"/>
<path d="M0 0 C8.57142857 1 8.57142857 1 12 2 C12 2.66 12 3.32 12 4 C14.01822917 4.45572917 16.03645833 4.91145833 18.0546875 5.3671875 C20 6 20 6 22 8 C14.69091852 7.33553805 4.89514738 5.86747118 0 0 Z " fill="#3FAAD8" transform="translate(206,240)"/>
<path d="M0 0 C4.54822201 2.40490403 7.77351595 5.5367133 11.3125 9.1875 C11.86228516 9.74630859 12.41207031 10.30511719 12.97851562 10.88085938 C14.32363696 12.24937412 15.66246643 13.62406833 17 15 C16.67 15.66 16.34 16.32 16 17 C13.75096879 15.39354913 11.80618371 13.80048323 9.875 11.8125 C8.19497567 9.76832597 8.19497567 9.76832597 6 10 C5.938125 9.38125 5.87625 8.7625 5.8125 8.125 C5.171081 5.72238859 5.171081 5.72238859 2.4375 4.75 C1.633125 4.5025 0.82875 4.255 0 4 C0 2.68 0 1.36 0 0 Z " fill="#C1598E" transform="translate(342,100)"/>
<path d="M0 0 C-0.7734375 0.30292969 -1.546875 0.60585937 -2.34375 0.91796875 C-13.54328319 5.07486292 -13.54328319 5.07486292 -22 13 C-23.32 12.67 -24.64 12.34 -26 12 C-6.49492158 -2.58565599 -6.49492158 -2.58565599 0 0 Z " fill="#5BA7C4" transform="translate(126,247)"/>
<path d="M0 0 C2.625 -0.1875 2.625 -0.1875 5 0 C5.28875 0.804375 5.5775 1.60875 5.875 2.4375 C6.73262568 5.1326468 6.73262568 5.1326468 9 6 C9 7.65 9 9.3 9 11 C8.34 11 7.68 11 7 11 C6.5875 9.88625 6.175 8.7725 5.75 7.625 C4.64453484 5.00679305 4.25119213 4.16506911 1.8125 2.5625 C1.214375 2.376875 0.61625 2.19125 0 2 C0 4.64 0 7.28 0 10 C-0.66 9.67 -1.32 9.34 -2 9 C-2.25 3.375 -2.25 3.375 0 0 Z " fill="#D13C94" transform="translate(177,224)"/>
<path d="M0 0 C5.60795104 0.22889596 8.34479785 1.6158498 12.51953125 5.33203125 C14.09897365 7.11150857 15.03666447 8.83366987 16 11 C12.3540648 9.30977276 9.09204498 7.1614937 5.75 4.9375 C4.67234375 4.22464844 3.5946875 3.51179688 2.484375 2.77734375 C1.66453125 2.19082031 0.8446875 1.60429687 0 1 C0 0.67 0 0.34 0 0 Z " fill="#55A9CB" transform="translate(109,330)"/>
<path d="M0 0 C-6.90547693 3.2225559 -14.44148571 4.32863106 -22 4 C-22 3.34 -22 2.68 -22 2 C-19.08483516 1.46915208 -16.16839443 0.95000945 -13.25 0.4375 C-12.425 0.28603516 -11.6 0.13457031 -10.75 -0.02148438 C-9.95078125 -0.16005859 -9.1515625 -0.29863281 -8.328125 -0.44140625 C-7.5949707 -0.57232666 -6.86181641 -0.70324707 -6.10644531 -0.83813477 C-3.83766713 -1.01247412 -2.16221421 -0.66874807 0 0 Z " fill="#5898B6" transform="translate(308,319)"/>
<path d="M0 0 C3.14569587 0.93520688 4.7510624 1.70127488 6.875 4.25 C8.36106788 7.88261038 8.31376581 9.27766353 7 13 C4.89692857 15.90024564 2.65224014 18.58664523 0 21 C-0.66 21 -1.32 21 -2 21 C-0.76448756 17.29346269 0.96665078 16.35084565 4 14 C5.45147903 11.09704195 5.37239025 9.22738221 5 6 C3.52631484 3.72248656 1.88564762 1.97993 0 0 Z " fill="#6090A7" transform="translate(430,286)"/>
<path d="M0 0 C1.65322266 0.01740234 1.65322266 0.01740234 3.33984375 0.03515625 C4.44457031 0.04417969 5.54929688 0.05320313 6.6875 0.0625 C7.54214844 0.07410156 8.39679688 0.08570313 9.27734375 0.09765625 C9.27734375 0.42765625 9.27734375 0.75765625 9.27734375 1.09765625 C6.21493248 1.74391081 3.15239908 2.38958478 0.08984375 3.03515625 C-1.20663086 3.30875977 -1.20663086 3.30875977 -2.52929688 3.58789062 C-6.59009706 4.4436148 -10.65059939 5.29673409 -14.72265625 6.09765625 C-12.22003764 2.99440918 -11.04207527 2.15720895 -7.03515625 1.41015625 C-5.94203125 1.30703125 -4.84890625 1.20390625 -3.72265625 1.09765625 C-2.72265625 0.09765625 -2.72265625 0.09765625 0 0 Z " fill="#B5409B" transform="translate(142.72265625,236.90234375)"/>
<path d="M0 0 C4.95 0 9.9 0 15 0 C15 0.66 15 1.32 15 2 C15.721875 2.061875 16.44375 2.12375 17.1875 2.1875 C20.84657625 3.24456647 22.49211602 5.20550071 25 8 C22.26717325 6.92343188 19.62995121 5.81497561 17 4.5 C11.65564166 2.1551479 5.73909998 1.73356917 0 1 C0 0.67 0 0.34 0 0 Z " fill="#B95E8B" transform="translate(324,199)"/>
<path d="M0 0 C19.96810934 -0.3690205 19.96810934 -0.3690205 29 2 C29 2.33 29 2.66 29 3 C5.09115282 3.39410188 5.09115282 3.39410188 0 0 Z " fill="#1EAEE6" transform="translate(203,370)"/>
<path d="M0 0 C2.97 0.495 2.97 0.495 6 1 C6 1.66 6 2.32 6 3 C5.34 3 4.68 3 4 3 C4 4.32 4 5.64 4 7 C3.01 7.33 2.02 7.66 1 8 C-0.68538601 9.99665314 -0.68538601 9.99665314 -2 12 C-1.835 11.0925 -1.67 10.185 -1.5 9.25 C-0.89862854 5.88912497 -0.89862854 5.88912497 -1 2 C-0.67 1.34 -0.34 0.68 0 0 Z " fill="#D74A98" transform="translate(290,116)"/>
<path d="M0 0 C8.20431878 3.01171196 15.50777233 8.20963478 22 14 C20.68 14.33 19.36 14.66 18 15 C17.566875 14.360625 17.13375 13.72125 16.6875 13.0625 C15.08760823 10.73253997 15.08760823 10.73253997 12 10 C11.38125 9.3503125 11.38125 9.3503125 10.75 8.6875 C9.02932202 7.02827481 7.52640554 6.12878746 5.4375 5 C2 3 2 3 0 0 Z " fill="#BC598A" transform="translate(320,85)"/>
<path d="M0 0 C0.66 0 1.32 0 2 0 C2 1.98 2 3.96 2 6 C1.01 6 0.02 6 -1 6 C-1.144375 7.093125 -1.28875 8.18625 -1.4375 9.3125 C-2 13 -2 13 -3 16 C-3.66 15.67 -4.32 15.34 -5 15 C-4.67 12.03 -4.34 9.06 -4 6 C-3.34 6 -2.68 6 -2 6 C-1.7834375 5.071875 -1.7834375 5.071875 -1.5625 4.125 C-1 2 -1 2 0 0 Z " fill="#CE3C92" transform="translate(200,195)"/>
<path d="M0 0 C3.07692057 2.76922851 4.77800007 5.02850024 6 9 C6 9.99 6 10.98 6 12 C4.68 12 3.36 12 2 12 C2 10.35 2 8.7 2 7 C1.01 6.67 0.02 6.34 -1 6 C-1.042721 4.33388095 -1.04063832 2.66617115 -1 1 C-0.67 0.67 -0.34 0.34 0 0 Z " fill="#D15491" transform="translate(377,148)"/>
<path d="M0 0 C0.66 0 1.32 0 2 0 C2 0.66 2 1.32 2 2 C2.763125 1.938125 3.52625 1.87625 4.3125 1.8125 C7 2 7 2 8.8125 3.375 C10 5 10 5 10 7 C10.7425 7.12375 11.485 7.2475 12.25 7.375 C14.80141485 7.95486701 16.7267573 8.73708739 19 10 C18.01 10.495 18.01 10.495 17 11 C15.08203125 10.328125 15.08203125 10.328125 12.8125 9.25 C9.90203569 7.87705076 7.01433282 6.62335385 4 5.5 C1 4 1 4 0.0625 1.8125 C0.041875 1.214375 0.02125 0.61625 0 0 Z " fill="#3FADE2" transform="translate(143,349)"/>
<path d="M0 0 C0.33 0.66 0.66 1.32 1 2 C0.22729492 3.67993164 0.22729492 3.67993164 -1.01953125 5.66015625 C-1.46490234 6.37107422 -1.91027344 7.08199219 -2.36914062 7.81445312 C-2.84544922 8.55630859 -3.32175781 9.29816406 -3.8125 10.0625 C-4.27720703 10.80822266 -4.74191406 11.55394531 -5.22070312 12.32226562 C-8.72940199 17.864701 -8.72940199 17.864701 -11 19 C-11 16.69 -11 14.38 -11 12 C-10.01 12 -9.02 12 -8 12 C-6.68 9.69 -5.36 7.38 -4 5 C-3.34 5 -2.68 5 -2 5 C-2 3.68 -2 2.36 -2 1 C-1.34 0.67 -0.68 0.34 0 0 Z " fill="#BC5889" transform="translate(375,263)"/>
<path d="M0 0 C-0.598125 0.2475 -1.19625 0.495 -1.8125 0.75 C-4.29836688 2.17049536 -5.40882737 3.65112611 -7 6 C-7.33 6.33 -7.66 6.66 -8 7 C-10.00720923 6.71325582 -12.0085944 6.38133299 -14 6 C-10.31063898 1.88494347 -5.74338985 -2.42989571 0 0 Z " fill="#D43A8E" transform="translate(203,81)"/>
<path d="M0 0 C2.06363112 0.45321328 4.12586507 0.91279106 6.1875 1.375 C7.33605469 1.63023437 8.48460937 1.88546875 9.66796875 2.1484375 C12.58807348 2.89472452 15.23953389 3.80431788 18 5 C18 5.33 18 5.66 18 6 C11.48141987 6.47407856 6.65382631 5.38982147 1 2 C0.67 1.34 0.34 0.68 0 0 Z " fill="#30AFDF" transform="translate(218,312)"/>
<path d="M0 0 C1.41623216 -0.05447047 2.83308191 -0.09300508 4.25 -0.125 C5.03890625 -0.14820313 5.8278125 -0.17140625 6.640625 -0.1953125 C9.20731941 0.0171622 10.7916067 0.71345895 13 2 C12.34 3.32 11.68 4.64 11 6 C10.484375 5.731875 9.96875 5.46375 9.4375 5.1875 C6.33598585 3.67650593 3.17737194 2.34427274 0 1 C0 0.67 0 0.34 0 0 Z " fill="#D9529B" transform="translate(339,200)"/>
<path d="M0 0 C0.33 0 0.66 0 1 0 C2.45463918 9.0257732 2.45463918 9.0257732 0.6875 12.8125 C0.130625 13.534375 -0.42625 14.25625 -1 15 C-1.69822617 16.65369357 -2.37498605 18.31727014 -3 20 C-3.66 20 -4.32 20 -5 20 C-4.37257439 13.34928849 -4.37257439 13.34928849 -2.5 11.59375 C-0.44199331 9.40711789 -0.50440713 7.76786974 -0.3125 4.8125 C-0.24675781 3.91144531 -0.18101562 3.01039063 -0.11328125 2.08203125 C-0.07589844 1.39496094 -0.03851563 0.70789063 0 0 Z " fill="#D05093" transform="translate(301,140)"/>
<path d="M0 0 C0.33 0 0.66 0 1 0 C1 3.3 1 6.6 1 10 C2.32 10 3.64 10 5 10 C4.67 11.98 4.34 13.96 4 16 C1.06172809 13.32884372 -0.83809441 11.0723915 -1.15625 7 C-1.1848282 4.99952607 -1.09827523 2.99826291 -1 1 C-0.67 0.67 -0.34 0.34 0 0 Z " fill="#CD4991" transform="translate(233,207)"/>
<path d="M0 0 C2.97 0.495 2.97 0.495 6 1 C6 5.62 6 10.24 6 15 C3 9 3 9 2 6 C2.33 5.01 2.66 4.02 3 3 C2.01 2.67 1.02 2.34 0 2 C0 1.34 0 0.68 0 0 Z " fill="#E1519C" transform="translate(354,208)"/>
<path d="M0 0 C0.66 0.33 1.32 0.66 2 1 C0.7934375 1.37125 0.7934375 1.37125 -0.4375 1.75 C-1.283125 2.1625 -2.12875 2.575 -3 3 C-3.73323796 5.01508358 -3.73323796 5.01508358 -4 7 C-6.70879335 8.35439668 -9.00933268 8.06501451 -12 8 C-11.67 7.34 -11.34 6.68 -11 6 C-8.9375 5.375 -8.9375 5.375 -7 5 C-7 4.34 -7 3.68 -7 3 C-4.69631264 1.93347808 -2.35981813 0.93578995 0 0 Z " fill="#539ECC" transform="translate(364,297)"/>
<path d="M0 0 C1.65 0.33 3.3 0.66 5 1 C5.33 2.32 5.66 3.64 6 5 C5.01 5.495 5.01 5.495 4 6 C3.67 5.34 3.34 4.68 3 4 C2.01 6.31 1.02 8.62 0 11 C-0.33 11 -0.66 11 -1 11 C-1.14285714 3.57142857 -1.14285714 3.57142857 0 0 Z " fill="#D62E95" transform="translate(122,170)"/>
<path d="M0 0 C-1 3 -1 3 -3.125 4.125 C-6.40227023 5.12243007 -9.60181728 5.6002138 -13 6 C-9.24201894 1.84644198 -5.71575712 -0.48992204 0 0 Z M-8 5 C-6 6 -6 6 -6 6 Z " fill="#CA4D97" transform="translate(190,85)"/>
<path d="M0 0 C0.8971875 0.309375 0.8971875 0.309375 1.8125 0.625 C-1.4209275 3.42678062 -4.29198769 4.36624175 -8.4375 5.3125 C-9.51515625 5.56386719 -10.5928125 5.81523437 -11.703125 6.07421875 C-12.93289063 6.34685547 -12.93289063 6.34685547 -14.1875 6.625 C-14.1875 5.635 -14.1875 4.645 -14.1875 3.625 C-13.57261719 3.50382812 -12.95773437 3.38265625 -12.32421875 3.2578125 C-11.51597656 3.09023438 -10.70773437 2.92265625 -9.875 2.75 C-9.07449219 2.58757812 -8.27398437 2.42515625 -7.44921875 2.2578125 C-4.46394115 1.42255348 -3.15245384 -0.54042066 0 0 Z " fill="#36A0DB" transform="translate(322.1875,357.375)"/>
<path d="M0 0 C6.19240462 0.68804496 12.01955594 2.28048715 18 4 C18 4.66 18 5.32 18 6 C11.82777121 4.75971762 5.93317878 3.10396411 0 1 C0 0.67 0 0.34 0 0 Z " fill="#5DA0BF" transform="translate(247,301)"/>
<path d="M0 0 C-1 3 -1 3 -3 4 C-3.4125 4.763125 -3.825 5.52625 -4.25 6.3125 C-6.3604498 9.55354791 -8.71311833 11.027871 -12 13 C-12.66 12.67 -13.32 12.34 -14 12 C-13.15115234 11.29423828 -13.15115234 11.29423828 -12.28515625 10.57421875 C-11.55167969 9.95160156 -10.81820313 9.32898438 -10.0625 8.6875 C-9.33160156 8.07261719 -8.60070312 7.45773437 -7.84765625 6.82421875 C-5.76179634 5.04024481 -5.76179634 5.04024481 -5 2 C-2 0 -2 0 0 0 Z " fill="#6296BE" transform="translate(432,301)"/>
<path d="M0 0 C3.34097385 0.59660247 5.54300129 1.63075125 8 4 C8 5.32 8 6.64 8 8 C7.34 8 6.68 8 6 8 C5.67 7.34 5.34 6.68 5 6 C4.154375 5.525625 3.30875 5.05125 2.4375 4.5625 C1.633125 4.046875 0.82875 3.53125 0 3 C0 2.01 0 1.02 0 0 Z " fill="#D55496" transform="translate(354,115)"/>
<path d="M0 0 C-3.7559214 3.42931954 -8.23466745 4.56429083 -13 6 C-9.63450933 -0.25019695 -6.86836268 -0.12959175 0 0 Z " fill="#5B9AC2" transform="translate(356,348)"/>
<path d="M0 0 C0.99 0 1.98 0 3 0 C1.5741914 3.45195767 -0.09746334 5.1014256 -3.125 7.25 C-4.21167969 8.03117187 -4.21167969 8.03117187 -5.3203125 8.828125 C-5.87460938 9.21484375 -6.42890625 9.6015625 -7 10 C-7.66 9.67 -8.32 9.34 -9 9 C-8.43410156 8.51789063 -7.86820312 8.03578125 -7.28515625 7.5390625 C-6.55167969 6.90742188 -5.81820312 6.27578125 -5.0625 5.625 C-4.33160156 4.99851562 -3.60070312 4.37203125 -2.84765625 3.7265625 C-0.91619094 2.12252286 -0.91619094 2.12252286 0 0 Z " fill="#36B1DD" transform="translate(100,260)"/>
<path d="M0 0 C3 1 3 1 4.0625 2.75 C5.06580489 5.15793173 6.05450633 7.56873057 7 10 C6.01 10.495 6.01 10.495 5 11 C4.38125 10.030625 3.7625 9.06125 3.125 8.0625 C1.34321154 4.97164638 1.34321154 4.97164638 -1 4 C-0.67 2.68 -0.34 1.36 0 0 Z " fill="#B35B8C" transform="translate(330,261)"/>
<path d="M0 0 C0.99 0.66 1.98 1.32 3 2 C1.93458984 2.30744141 1.93458984 2.30744141 0.84765625 2.62109375 C-0.53099609 3.02521484 -0.53099609 3.02521484 -1.9375 3.4375 C-3.31228516 3.83775391 -3.31228516 3.83775391 -4.71484375 4.24609375 C-6.9402493 4.79026051 -6.9402493 4.79026051 -8 6 C-9.99958364 6.04080783 -12.00045254 6.04254356 -14 6 C-11.521123 3.521123 -9.36947006 2.88839939 -6.0625 1.75 C-4.47115234 1.18539063 -4.47115234 1.18539063 -2.84765625 0.609375 C-1.90792969 0.40828125 -0.96820313 0.2071875 0 0 Z " fill="#53A0BF" transform="translate(333,309)"/>
<path d="M0 0 C0.5625 1.9375 0.5625 1.9375 1 4 C0.67 4.33 0.34 4.66 0 5 C-0.04080783 6.99958364 -0.04254356 9.00045254 0 11 C1.32 11.66 2.64 12.32 4 13 C1.625 13.125 1.625 13.125 -1 13 C-3 11 -3 11 -3.3125 8.1875 C-2.96840628 4.67774407 -2.01272399 2.85135899 0 0 Z " fill="#65A1BD" transform="translate(64,304)"/>
<path d="M0 0 C1.8125 1.5625 1.8125 1.5625 3 3 C1.02 3.66 -0.96 4.32 -3 5 C-3.33 4.01 -3.66 3.02 -4 2 C-4.99 2.33 -5.98 2.66 -7 3 C-7 2.01 -7 1.02 -7 0 C-4.26634878 -1.36682561 -2.89333621 -0.84683011 0 0 Z " fill="#D54391" transform="translate(241,204)"/>
<path d="M0 0 C1.32 1.65 2.64 3.3 4 5 C2.5 7.5 2.5 7.5 0 10 C-2.80138565 10.45442324 -5.13800875 10.23849927 -8 10 C-5.66785852 8.79371992 -3.50357861 7.8345262 -1 7 C-0.67 4.69 -0.34 2.38 0 0 Z " fill="#D54D93" transform="translate(299,178)"/>
<path d="M0 0 C4.83628305 0.99043705 9.47618873 1.95698846 14 4 C13.67 4.66 13.34 5.32 13 6 C12.40832031 5.79503906 11.81664062 5.59007812 11.20703125 5.37890625 C7.16339184 4.0002429 3.23144751 2.68249153 -1 2 C-0.67 1.34 -0.34 0.68 0 0 Z " fill="#5E9BB9" transform="translate(223,291)"/>
<path d="M0 0 C0.66 0.33 1.32 0.66 2 1 C2.33333333 3 2.66666667 5 3 7 C3.66 7.33 4.32 7.66 5 8 C3.68 8.33 2.36 8.66 1 9 C-1.14809171 5.77786243 -1.29386153 4.72224599 -1 1 C-0.67 0.67 -0.34 0.34 0 0 Z " fill="#D22F92" transform="translate(125,234)"/>
<path d="M0 0 C3.93673644 1.31224548 6.22719294 2.91910327 9 6 C5.7 5.67 2.4 5.34 -1 5 C-0.67 3.35 -0.34 1.7 0 0 Z " fill="#BE4982" transform="translate(250,209)"/>
<path d="M0 0 C3.78786597 0.5260925 6.17152224 1.38103911 9 4 C9 4.66 9 5.32 9 6 C9.99 6.33 10.98 6.66 12 7 C11.01 7.495 11.01 7.495 10 8 C8.33055479 6.85821872 6.6645052 5.71147095 5 4.5625 C4.071875 3.92441406 3.14375 3.28632813 2.1875 2.62890625 C1.465625 2.09136719 0.74375 1.55382812 0 1 C0 0.67 0 0.34 0 0 Z " fill="#5CA6C9" transform="translate(125,341)"/>
<path d="M0 0 C0.66 1.32 1.32 2.64 2 4 C-3.75 7 -3.75 7 -6 7 C-6 6.01 -6 5.02 -6 4 C-3 1.8125 -3 1.8125 0 0 Z " fill="#429BD5" transform="translate(366,336)"/>
<path d="M0 0 C-0.66 0 -1.32 0 -2 0 C-2 0.66 -2 1.32 -2 2 C-2.66 2 -3.32 2 -4 2 C-3.43260132 6.12973628 -3.43260132 6.12973628 -2 10 C-2.99 10.33 -3.98 10.66 -5 11 C-6.28317892 7.15046324 -6.06643637 4.05261865 -6 0 C-3 -1 -3 -1 0 0 Z " fill="#5CA2C0" transform="translate(215,293)"/>
<path d="M0 0 C1.98 0.99 1.98 0.99 4 2 C4 5.96 4 9.92 4 14 C3.67 14 3.34 14 3 14 C2.01 9.38 1.02 4.76 0 0 Z " fill="#B85F8B" transform="translate(336,272)"/>
<path d="M0 0 C1.9375 1.0625 1.9375 1.0625 4 3 C4.40729228 5.32156597 4.74438677 7.6568787 5 10 C5.66 10.66 6.32 11.32 7 12 C5.68 12 4.36 12 3 12 C2.49166409 10.75336669 1.99368855 9.50250613 1.5 8.25 C1.2215625 7.55390625 0.943125 6.8578125 0.65625 6.140625 C0 4 0 4 0 0 Z " fill="#B8508D" transform="translate(121,232)"/>
<path d="M0 0 C1.32 0 2.64 0 4 0 C2.25 5.75 2.25 5.75 0 8 C-0.99 7.67 -1.98 7.34 -3 7 C-2.01 4.69 -1.02 2.38 0 0 Z " fill="#BC5689" transform="translate(286,187)"/>
<path d="M0 0 C2.31 0.33 4.62 0.66 7 1 C7 1.66 7 2.32 7 3 C7.66 3.33 8.32 3.66 9 4 C4.82412255 5.39195915 2.86525224 3.82323219 -1 2 C-0.67 1.34 -0.34 0.68 0 0 Z " fill="#54A5C3" transform="translate(238,296)"/>
<path d="M0 0 C0.99 0.33 1.98 0.66 3 1 C3.2226746 2.43534841 3.42761906 3.87345525 3.625 5.3125 C3.74101562 6.11300781 3.85703125 6.91351563 3.9765625 7.73828125 C4 10 4 10 2 13 C1.34 8.71 0.68 4.42 0 0 Z " fill="#D9519B" transform="translate(340,276)"/>
<path d="M0 0 C0.66 0.33 1.32 0.66 2 1 C-0.64 3.64 -3.28 6.28 -6 9 C-6.33 8.34 -6.66 7.68 -7 7 C-3.375 1.125 -3.375 1.125 0 0 Z " fill="#BD5A8C" transform="translate(352,294)"/>
<path d="M0 0 C-1 2 -1 2 -3.14453125 2.88671875 C-4.02496094 3.15097656 -4.90539062 3.41523438 -5.8125 3.6875 C-6.68519531 3.95949219 -7.55789063 4.23148437 -8.45703125 4.51171875 C-11.06873834 5.01319861 -12.51716384 4.86233704 -15 4 C-12.87875034 3.13656176 -10.75286928 2.28449352 -8.625 1.4375 C-6.84996094 0.72400391 -6.84996094 0.72400391 -5.0390625 -0.00390625 C-2 -1 -2 -1 0 0 Z " fill="#5996BB" transform="translate(381,292)"/>
<path d="M0 0 C0 3.58912412 -0.66436554 4.10857029 -3 6.6875 C-3.556875 7.31011719 -4.11375 7.93273437 -4.6875 8.57421875 C-5.120625 9.04472656 -5.55375 9.51523437 -6 10 C-6.66 9.67 -7.32 9.34 -8 9 C-7.67 8.01 -7.34 7.02 -7 6 C-6.01 6 -5.02 6 -4 6 C-3.8453125 5.071875 -3.8453125 5.071875 -3.6875 4.125 C-3 2 -3 2 0 0 Z " fill="#BE588C" transform="translate(361,284)"/>
<path d="M0 0 C1.99097846 2.98646769 2.94124926 5.59687262 4 9 C2.68 9 1.36 9 0 9 C-0.33 9.99 -0.66 10.98 -1 12 C-0.67 8.04 -0.34 4.08 0 0 Z " fill="#4CABD3" transform="translate(323,279)"/>
<path d="M0 0 C2.64 0 5.28 0 8 0 C8 1.32 8 2.64 8 4 C4 4 4 4 1.75 2 C1.1725 1.34 0.595 0.68 0 0 Z " fill="#C35492" transform="translate(273,258)"/>
<path d="M0 0 C2.31 1.65 4.62 3.3 7 5 C6.67 6.32 6.34 7.64 6 9 C6 8.34 6 7.68 6 7 C4.68 7 3.36 7 2 7 C1.34 4.69 0.68 2.38 0 0 Z " fill="#BC5583" transform="translate(297,250)"/>
<path d="M0 0 C-1.43429001 0.67354499 -2.87257057 1.33859701 -4.3125 2 C-5.51326172 2.556875 -5.51326172 2.556875 -6.73828125 3.125 C-9 4 -9 4 -12 4 C-12 3.01 -12 2.02 -12 1 C-3.96428571 -1.27678571 -3.96428571 -1.27678571 0 0 Z " fill="#5D96BD" transform="translate(342,355)"/>
<path d="M0 0 C0.886875 0.185625 1.77375 0.37125 2.6875 0.5625 C5.85178811 0.98042484 7.94839642 0.80777742 11 0 C10.01 1.485 10.01 1.485 9 3 C6.6171875 3.29296875 6.6171875 3.29296875 3.875 3.1875 C2.96492188 3.16042969 2.05484375 3.13335937 1.1171875 3.10546875 C0.41851562 3.07066406 -0.28015625 3.03585937 -1 3 C-0.67 2.01 -0.34 1.02 0 0 Z " fill="#4FA7D9" transform="translate(398,285)"/>
<path d="M0 0 C0.33 0 0.66 0 1 0 C1 1.65 1 3.3 1 5 C-0.45792884 5.05399736 -1.91642712 5.09279177 -3.375 5.125 C-4.18710938 5.14820313 -4.99921875 5.17140625 -5.8359375 5.1953125 C-8 5 -8 5 -10 3 C-9.36191406 2.95101562 -8.72382813 2.90203125 -8.06640625 2.8515625 C-7.24011719 2.77679688 -6.41382813 2.70203125 -5.5625 2.625 C-4.73878906 2.55539063 -3.91507813 2.48578125 -3.06640625 2.4140625 C-2.38449219 2.27742187 -1.70257813 2.14078125 -1 2 C-0.67 1.34 -0.34 0.68 0 0 Z " fill="#A15BA2" transform="translate(198,233)"/>
<path d="M0 0 C1.41778293 2.83556587 0.86257622 4.9908706 0.5625 8.125 C0.46066406 9.22070312 0.35882813 10.31640625 0.25390625 11.4453125 C0.17011719 12.28835937 0.08632813 13.13140625 0 14 C-0.99 13.67 -1.98 13.34 -3 13 C-2.855625 12.319375 -2.71125 11.63875 -2.5625 10.9375 C-2.13799718 8.72065192 -1.79831018 6.48732633 -1.5 4.25 C-1 1 -1 1 0 0 Z " fill="#D15593" transform="translate(387,223)"/>
<path d="M0 0 C0 0.99 0 1.98 0 3 C-0.99 3 -1.98 3 -3 3 C-3 3.66 -3 4.32 -3 5 C-4.32 4.34 -5.64 3.68 -7 3 C-6.67 2.01 -6.34 1.02 -6 0 C-3 -1 -3 -1 0 0 Z " fill="#E4499C" transform="translate(329,91)"/>
<path d="M0 0 C1.4391134 0.28359887 2.87625518 0.57721399 4.3125 0.875 C5.11300781 1.03742188 5.91351563 1.19984375 6.73828125 1.3671875 C9 2 9 2 12 4 C11.01 4.66 10.02 5.32 9 6 C6.03 4.35 3.06 2.7 0 1 C0 0.67 0 0.34 0 0 Z " fill="#C2598F" transform="translate(291,73)"/>
<path d="M0 0 C1.58367747 0.14204741 3.16693318 0.28880153 4.75 0.4375 C5.63171875 0.51871094 6.5134375 0.59992188 7.421875 0.68359375 C9.69350452 0.96238465 11.79851823 1.38790577 14 2 C14 2.66 14 3.32 14 4 C8.93767116 4.48990279 4.67369154 2.7106322 0 1 C0 0.67 0 0.34 0 0 Z " fill="#BF558C" transform="translate(272,69)"/>
<path d="M0 0 C0.33 0.66 0.66 1.32 1 2 C-0.3125 4.625 -0.3125 4.625 -2 7 C-2.66 7 -3.32 7 -4 7 C-4.33 7.99 -4.66 8.98 -5 10 C-6.37245106 7.25509788 -5.93580311 5.87939419 -5 3 C-3 1.75 -3 1.75 -1 1 C-0.67 0.67 -0.34 0.34 0 0 Z " fill="#32B5DF" transform="translate(83,279)"/>
<path d="M0 0 C0.66 0 1.32 0 2 0 C1.27991594 4.60853797 -0.31295939 8.67237409 -2 13 C-3.18414294 9.44757118 -2.69535532 8.30169438 -1.5625 4.8125 C-1.27503906 3.91144531 -0.98757812 3.01039063 -0.69140625 2.08203125 C-0.46324219 1.39496094 -0.23507813 0.70789063 0 0 Z " fill="#C6549B" transform="translate(123,162)"/>
<path d="M0 0 C2.64 0 5.28 0 8 0 C8 0.99 8 1.98 8 3 C5.03 3 2.06 3 -1 3 C-0.67 2.01 -0.34 1.02 0 0 Z " fill="#31A1DA" transform="translate(381,293)"/>
<path d="M0 0 C0.99 0.33 1.98 0.66 3 1 C1.88121617 2.17262904 0.75476949 3.33795138 -0.375 4.5 C-1.00148438 5.1496875 -1.62796875 5.799375 -2.2734375 6.46875 C-4 8 -4 8 -6 8 C-5.34 6.68 -4.68 5.36 -4 4 C-3.34 4 -2.68 4 -2 4 C-1.34 2.68 -0.68 1.36 0 0 Z " fill="#B25E8B" transform="translate(300,260)"/>
<path d="M0 0 C0.66 0.33 1.32 0.66 2 1 C1.67 1.66 1.34 2.32 1 3 C3.31 3 5.62 3 8 3 C8 3.33 8 3.66 8 4 C4.37 4.33 0.74 4.66 -3 5 C-2.01 3.35 -1.02 1.7 0 0 Z " fill="#C83897" transform="translate(151,232)"/>
<path d="M0 0 C1.98 0.66 3.96 1.32 6 2 C6 2.66 6 3.32 6 4 C5.01 4.495 5.01 4.495 4 5 C3.67 5.99 3.34 6.98 3 8 C2.34 8 1.68 8 1 8 C0.67 5.36 0.34 2.72 0 0 Z " fill="#A85784" transform="translate(276,194)"/>
<path d="M0 0 C0.99 0.99 1.98 1.98 3 3 C2.1875 4.9375 2.1875 4.9375 1 7 C0.01 7.33 -0.98 7.66 -2 8 C-2.6875 6.25 -2.6875 6.25 -3 4 C-1.5625 1.75 -1.5625 1.75 0 0 Z " fill="#D63A90" transform="translate(204,185)"/>
<path d="M0 0 C0.99 0 1.98 0 3 0 C1.83857315 4.35535069 0.92300495 6.64619703 -3 9 C-2.01 6.03 -1.02 3.06 0 0 Z " fill="#6B9CB9" transform="translate(323,288)"/>
<path d="M0 0 C2.64 0 5.28 0 8 0 C8.66 1.32 9.32 2.64 10 4 C7.03 3.67 4.06 3.34 1 3 C0.67 2.01 0.34 1.02 0 0 Z " fill="#56A6D3" transform="translate(422,285)"/>
<path d="M0 0 C0.66 0 1.32 0 2 0 C2 1.32 2 2.64 2 4 C2.66 4.33 3.32 4.66 4 5 C3.67 5.66 3.34 6.32 3 7 C1.35 6.67 -0.3 6.34 -2 6 C-1.34 4.02 -0.68 2.04 0 0 Z " fill="#DF4B9C" transform="translate(300,184)"/>
<path d="M0 0 C0.66 0 1.32 0 2 0 C2 0.66 2 1.32 2 2 C3.65 2 5.3 2 7 2 C7.33 2.99 7.66 3.98 8 5 C5.69 4.67 3.38 4.34 1 4 C0.67 2.68 0.34 1.36 0 0 Z " fill="#2EAFE5" transform="translate(143,349)"/>
<path d="M0 0 C3.3 0.99 6.6 1.98 10 3 C10 3.99 10 4.98 10 6 C9.1646875 5.566875 9.1646875 5.566875 8.3125 5.125 C5.97193593 3.94039559 5.97193593 3.94039559 3.3125 3 C1 2 1 2 0 0 Z " fill="#33AFE2" transform="translate(123,338)"/>
<path d="M0 0 C0.66 0.33 1.32 0.66 2 1 C-2.455 3.97 -2.455 3.97 -7 7 C-7.66 6.67 -8.32 6.34 -9 6 C-3.375 1.125 -3.375 1.125 0 0 Z " fill="#5D8FAF" transform="translate(413,316)"/>
<path d="M0 0 C8.03571429 0.80357143 8.03571429 0.80357143 12 3 C10.56344146 3.08131463 9.1255517 3.13933559 7.6875 3.1875 C6.48673828 3.23970703 6.48673828 3.23970703 5.26171875 3.29296875 C2.52148416 2.93801608 1.70828921 2.10633718 0 0 Z " fill="#539AB9" transform="translate(206,240)"/>
<path d="M0 0 C-2.6855594 2.6855594 -5.37621328 3.06049974 -9 4 C-8 1 -8 1 -6.1875 -0.25 C-3.66056586 -1.11637742 -2.47778006 -0.88492145 0 0 Z " fill="#D13293" transform="translate(146,235)"/>
<path d="M0 0 C0 2.97 0 5.94 0 9 C-0.99 8.34 -1.98 7.68 -3 7 C-3 5 -3 3 -3 1 C-1 0 -1 0 0 0 Z " fill="#E1529C" transform="translate(387,179)"/>
<path d="M0 0 C0.33 0 0.66 0 1 0 C1 2.64 1 5.28 1 8 C0.34 8 -0.32 8 -1 8 C-1.33 8.66 -1.66 9.32 -2 10 C-1.85950482 8.52031676 -1.71245174 7.04125484 -1.5625 5.5625 C-1.48128906 4.73878906 -1.40007812 3.91507813 -1.31640625 3.06640625 C-1 1 -1 1 0 0 Z " fill="#BC448C" transform="translate(120,175)"/>
<path d="M0 0 C1.32 0 2.64 0 4 0 C4.33 1.32 4.66 2.64 5 4 C3.35 4.33 1.7 4.66 0 5 C0 3.35 0 1.7 0 0 Z " fill="#E14E9E" transform="translate(369,139)"/>
<path d="M0 0 C0.66 0.33 1.32 0.66 2 1 C-0.31 3.31 -2.62 5.62 -5 8 C-5.99 7.67 -6.98 7.34 -8 7 C-5.36 4.69 -2.72 2.38 0 0 Z " fill="#C1518D" transform="translate(168,96)"/>
<path d="M0 0 C0.33 0.66 0.66 1.32 1 2 C1.66 2.33 2.32 2.66 3 3 C-0.465 4.485 -0.465 4.485 -4 6 C-4 5.01 -4 4.02 -4 3 C-2 1.3125 -2 1.3125 0 0 Z " fill="#38A0D8" transform="translate(332,352)"/>
<path d="M0 0 C0 0.99 0 1.98 0 3 C-0.639375 3.103125 -1.27875 3.20625 -1.9375 3.3125 C-2.618125 3.539375 -3.29875 3.76625 -4 4 C-4.33 4.99 -4.66 5.98 -5 7 C-5.66 6.67 -6.32 6.34 -7 6 C-6 3 -6 3 -2.9375 1.3125 C-1.968125 0.879375 -0.99875 0.44625 0 0 Z " fill="#56A6D5" transform="translate(393,326)"/>
<path d="M0 0 C6.75 1.625 6.75 1.625 9 5 C4.68607774 4.5206753 2.83430453 3.2542015 0 0 Z " fill="#30B3E0" transform="translate(104,325)"/>
<path d="M0 0 C1.65 0 3.3 0 5 0 C4.34 1.65 3.68 3.3 3 5 C3.66 5.33 4.32 5.66 5 6 C4.34 6 3.68 6 3 6 C3 6.66 3 7.32 3 8 C2.34 7.67 1.68 7.34 1 7 C1.33 5.02 1.66 3.04 2 1 C1.34 0.67 0.68 0.34 0 0 Z " fill="#D52E99" transform="translate(123,161)"/>
<path d="M0 0 C0 0.99 0 1.98 0 3 C-0.66 3 -1.32 3 -2 3 C-2.33 4.32 -2.66 5.64 -3 7 C-3.66 6.34 -4.32 5.68 -5 5 C-4.75 2.9375 -4.75 2.9375 -4 1 C-2 0 -2 0 0 0 Z " fill="#DA5398" transform="translate(373,265)"/>
<path d="M0 0 C1.32 0 2.64 0 4 0 C4 0.99 4 1.98 4 3 C4.99 3.33 5.98 3.66 7 4 C6.01 4.495 6.01 4.495 5 5 C2.375 3.6875 2.375 3.6875 0 2 C0 1.34 0 0.68 0 0 Z " fill="#E04F98" transform="translate(360,124)"/>
<path d="M0 0 C2 1 2 1 2 1 Z M-2 1 C-1.01 1.33 -0.02 1.66 1 2 C1 2.99 1 3.98 1 5 C-0.32 5.33 -1.64 5.66 -3 6 C-3 2 -3 2 -2 1 Z " fill="#D13790" transform="translate(182,89)"/>
<path d="" fill="#926D92" transform="translate(0,0)"/>
<path d="" fill="#FF00FF" transform="translate(0,0)"/>
</svg>
